<svg width="1331" height="423" viewBox="0 0 1331 423" fill="none" xmlns="http://www.w3.org/2000/svg">
<g filter="url(#filter0_ddi_349_2)">
<path d="M544.14 133.444C543.847 134.14 543.181 134.597 542.509 134.842C541.795 135.103 540.959 135.171 540.268 134.984C539.223 134.701 538.26 133.974 537.563 133.083C536.868 132.193 536.395 131.085 536.403 129.996L536.403 129.994C536.419 128.426 537.227 127.05 538.28 125.908C539.336 124.762 540.683 123.801 541.882 123.054L541.882 123.053C544.436 121.463 547.651 121.046 550.56 121.094L550.56 121.094C553.725 121.149 557.172 121.748 559.903 123.528L559.903 123.529C561.447 124.539 562.724 126.13 563.326 127.885C563.455 128.261 563.494 128.751 563.495 129.217C563.605 129.056 563.72 128.886 563.838 128.71C564.597 127.576 565.451 126.226 565.895 125.278L565.896 125.277C566.115 124.814 566.344 124.364 566.571 123.918C566.946 123.18 567.316 122.452 567.629 121.689C568.121 120.49 568.414 119.322 568.273 118.159L568.273 118.159C568.15 117.146 567.461 116.112 566.59 115.477C563.648 113.334 559.594 112.941 555.778 112.819L555.778 112.818C551.92 112.692 547.987 113.511 544.341 114.868L544.14 133.444ZM544.14 133.444C544.111 133.77 543.879 134.098 543.432 134.417C542.976 134.742 542.384 134.992 541.862 135.161L541.862 135.161C540.367 135.649 538.57 135.392 537.029 134.772L537.029 134.772C535.45 134.136 533.937 133.063 533.183 131.642L533.183 131.641C532.336 130.048 532.229 127.958 532.689 126.151L532.689 126.151C533.394 123.368 535.409 120.92 537.587 118.864L537.587 118.863C539.468 117.081 541.864 115.792 544.34 114.868L544.14 133.444Z" fill="url(#paint0_linear_349_2)"/>
<path d="M544.14 133.444C543.847 134.14 543.181 134.597 542.509 134.842C541.795 135.103 540.959 135.171 540.268 134.984C539.223 134.701 538.26 133.974 537.563 133.083C536.868 132.193 536.395 131.085 536.403 129.996L536.403 129.994C536.419 128.426 537.227 127.05 538.28 125.908C539.336 124.762 540.683 123.801 541.882 123.054L541.882 123.053C544.436 121.463 547.651 121.046 550.56 121.094L550.56 121.094C553.725 121.149 557.172 121.748 559.903 123.528L559.903 123.529C561.447 124.539 562.724 126.13 563.326 127.885C563.455 128.261 563.494 128.751 563.495 129.217C563.605 129.056 563.72 128.886 563.838 128.71C564.597 127.576 565.451 126.226 565.895 125.278L565.896 125.277C566.115 124.814 566.344 124.364 566.571 123.918C566.946 123.18 567.316 122.452 567.629 121.689C568.121 120.49 568.414 119.322 568.273 118.159L568.273 118.159C568.15 117.146 567.461 116.112 566.59 115.477C563.648 113.334 559.594 112.941 555.778 112.819L555.778 112.818C551.92 112.692 547.987 113.511 544.341 114.868L544.14 133.444ZM544.14 133.444C544.111 133.77 543.879 134.098 543.432 134.417C542.976 134.742 542.384 134.992 541.862 135.161L541.862 135.161C540.367 135.649 538.57 135.392 537.029 134.772L537.029 134.772C535.45 134.136 533.937 133.063 533.183 131.642L533.183 131.641C532.336 130.048 532.229 127.958 532.689 126.151L532.689 126.151C533.394 123.368 535.409 120.92 537.587 118.864L537.587 118.863C539.468 117.081 541.864 115.792 544.34 114.868L544.14 133.444Z" fill="white"/>
<path d="M544.14 133.444C543.847 134.14 543.181 134.597 542.509 134.842C541.795 135.103 540.959 135.171 540.268 134.984C539.223 134.701 538.26 133.974 537.563 133.083C536.868 132.193 536.395 131.085 536.403 129.996L536.403 129.994C536.419 128.426 537.227 127.05 538.28 125.908C539.336 124.762 540.683 123.801 541.882 123.054L541.882 123.053C544.436 121.463 547.651 121.046 550.56 121.094L550.56 121.094C553.725 121.149 557.172 121.748 559.903 123.528L559.903 123.529C561.447 124.539 562.724 126.13 563.326 127.885C563.455 128.261 563.494 128.751 563.495 129.217C563.605 129.056 563.72 128.886 563.838 128.71C564.597 127.576 565.451 126.226 565.895 125.278L565.896 125.277C566.115 124.814 566.344 124.364 566.571 123.918C566.946 123.18 567.316 122.452 567.629 121.689C568.121 120.49 568.414 119.322 568.273 118.159L568.273 118.159C568.15 117.146 567.461 116.112 566.59 115.477C563.648 113.334 559.594 112.941 555.778 112.819L555.778 112.818C551.92 112.692 547.987 113.511 544.341 114.868L544.14 133.444ZM544.14 133.444C544.111 133.77 543.879 134.098 543.432 134.417C542.976 134.742 542.384 134.992 541.862 135.161L541.862 135.161C540.367 135.649 538.57 135.392 537.029 134.772L537.029 134.772C535.45 134.136 533.937 133.063 533.183 131.642L533.183 131.641C532.336 130.048 532.229 127.958 532.689 126.151L532.689 126.151C533.394 123.368 535.409 120.92 537.587 118.864L537.587 118.863C539.468 117.081 541.864 115.792 544.34 114.868L544.14 133.444Z" stroke="white"/>
<path d="M545.012 131.901C544.734 131.532 544.361 131.213 543.943 131.021C544.539 131.044 545.185 131.262 545.716 131.593C546.354 131.991 546.858 132.719 546.911 133.391C546.991 134.432 546.403 135.638 545.556 136.357C544.833 136.971 543.913 137.33 542.887 137.548C541.86 137.767 540.765 137.837 539.703 137.898C537.973 137.996 536.182 137.677 534.515 137.109C532.754 136.502 531.067 135.572 529.633 134.381C527.965 132.994 526.457 131.34 525.526 129.439L525.526 129.439C524.524 127.395 524.047 125.037 524.034 122.734L524.034 122.733C524.014 119.852 524.625 116.898 525.805 114.272C526.972 111.681 528.88 109.413 530.945 107.362L530.945 107.362C533.443 104.877 536.374 102.777 539.491 101.111L539.492 101.111C542.834 99.3183 546.415 97.8792 550.109 97.2111C553.286 96.6402 556.61 96.478 559.728 97.1467L559.729 97.1468C561.393 97.5025 563.052 98.0706 564.192 99.1671L564.192 99.1672C565.823 100.735 566.582 103.086 567.333 105.416L567.354 105.481C567.77 106.771 568.092 108.812 568.311 110.563C568.393 111.222 568.46 111.833 568.511 112.338C568.261 112.114 567.991 111.894 567.751 111.752L567.751 111.752C566.066 110.757 564.137 110.227 562.279 109.876L562.278 109.876C559.294 109.315 556.216 109.254 553.208 109.467L553.207 109.467C549.748 109.719 546.11 110.082 542.83 111.456L542.83 111.456C539.972 112.655 537.361 114.533 535.205 116.743C533.246 118.75 531.106 121.139 530.438 124.039C529.795 126.83 530.121 130.083 531.566 132.601L531.566 132.601C532.587 134.377 534.461 135.673 536.339 136.32L536.339 136.32C538.512 137.066 541.277 137.396 543.453 136.293L543.455 136.293C543.977 136.026 544.488 135.614 544.873 135.119C545.257 134.627 545.543 134.017 545.543 133.359C545.543 132.825 545.32 132.31 545.012 131.901Z" fill="url(#paint1_linear_349_2)"/>
<path d="M545.012 131.901C544.734 131.532 544.361 131.213 543.943 131.021C544.539 131.044 545.185 131.262 545.716 131.593C546.354 131.991 546.858 132.719 546.911 133.391C546.991 134.432 546.403 135.638 545.556 136.357C544.833 136.971 543.913 137.33 542.887 137.548C541.86 137.767 540.765 137.837 539.703 137.898C537.973 137.996 536.182 137.677 534.515 137.109C532.754 136.502 531.067 135.572 529.633 134.381C527.965 132.994 526.457 131.34 525.526 129.439L525.526 129.439C524.524 127.395 524.047 125.037 524.034 122.734L524.034 122.733C524.014 119.852 524.625 116.898 525.805 114.272C526.972 111.681 528.88 109.413 530.945 107.362L530.945 107.362C533.443 104.877 536.374 102.777 539.491 101.111L539.492 101.111C542.834 99.3183 546.415 97.8792 550.109 97.2111C553.286 96.6402 556.61 96.478 559.728 97.1467L559.729 97.1468C561.393 97.5025 563.052 98.0706 564.192 99.1671L564.192 99.1672C565.823 100.735 566.582 103.086 567.333 105.416L567.354 105.481C567.77 106.771 568.092 108.812 568.311 110.563C568.393 111.222 568.46 111.833 568.511 112.338C568.261 112.114 567.991 111.894 567.751 111.752L567.751 111.752C566.066 110.757 564.137 110.227 562.279 109.876L562.278 109.876C559.294 109.315 556.216 109.254 553.208 109.467L553.207 109.467C549.748 109.719 546.11 110.082 542.83 111.456L542.83 111.456C539.972 112.655 537.361 114.533 535.205 116.743C533.246 118.75 531.106 121.139 530.438 124.039C529.795 126.83 530.121 130.083 531.566 132.601L531.566 132.601C532.587 134.377 534.461 135.673 536.339 136.32L536.339 136.32C538.512 137.066 541.277 137.396 543.453 136.293L543.455 136.293C543.977 136.026 544.488 135.614 544.873 135.119C545.257 134.627 545.543 134.017 545.543 133.359C545.543 132.825 545.32 132.31 545.012 131.901Z" fill="white"/>
<path d="M545.012 131.901C544.734 131.532 544.361 131.213 543.943 131.021C544.539 131.044 545.185 131.262 545.716 131.593C546.354 131.991 546.858 132.719 546.911 133.391C546.991 134.432 546.403 135.638 545.556 136.357C544.833 136.971 543.913 137.33 542.887 137.548C541.86 137.767 540.765 137.837 539.703 137.898C537.973 137.996 536.182 137.677 534.515 137.109C532.754 136.502 531.067 135.572 529.633 134.381C527.965 132.994 526.457 131.34 525.526 129.439L525.526 129.439C524.524 127.395 524.047 125.037 524.034 122.734L524.034 122.733C524.014 119.852 524.625 116.898 525.805 114.272C526.972 111.681 528.88 109.413 530.945 107.362L530.945 107.362C533.443 104.877 536.374 102.777 539.491 101.111L539.492 101.111C542.834 99.3183 546.415 97.8792 550.109 97.2111C553.286 96.6402 556.61 96.478 559.728 97.1467L559.729 97.1468C561.393 97.5025 563.052 98.0706 564.192 99.1671L564.192 99.1672C565.823 100.735 566.582 103.086 567.333 105.416L567.354 105.481C567.77 106.771 568.092 108.812 568.311 110.563C568.393 111.222 568.46 111.833 568.511 112.338C568.261 112.114 567.991 111.894 567.751 111.752L567.751 111.752C566.066 110.757 564.137 110.227 562.279 109.876L562.278 109.876C559.294 109.315 556.216 109.254 553.208 109.467L553.207 109.467C549.748 109.719 546.11 110.082 542.83 111.456L542.83 111.456C539.972 112.655 537.361 114.533 535.205 116.743C533.246 118.75 531.106 121.139 530.438 124.039C529.795 126.83 530.121 130.083 531.566 132.601L531.566 132.601C532.587 134.377 534.461 135.673 536.339 136.32L536.339 136.32C538.512 137.066 541.277 137.396 543.453 136.293L543.455 136.293C543.977 136.026 544.488 135.614 544.873 135.119C545.257 134.627 545.543 134.017 545.543 133.359C545.543 132.825 545.32 132.31 545.012 131.901Z" stroke="white"/>
<path d="M534.834 99.4471C539.053 96.883 543.851 95.1419 548.709 94.2818L548.709 94.2818C550.806 93.9108 553.958 93.933 556.55 94.0417C557.74 94.0916 558.823 94.1604 559.649 94.2204C559.323 93.9593 558.949 93.6639 558.549 93.3541C557.224 92.3298 555.636 91.1746 554.499 90.5714C552.54 89.5358 550.401 88.815 548.226 88.3329L548.226 88.3329C545.619 87.7553 542.932 87.4426 540.289 87.5825L534.834 99.4471ZM534.834 99.4471C531.674 101.367 528.896 103.974 526.628 106.877L526.628 106.877C524.805 109.213 523.355 111.896 522.439 114.721C521.512 117.578 521.017 120.647 521.198 123.664L521.198 123.665C521.325 125.72 521.857 127.791 522.772 129.642M534.834 99.4471L522.772 129.642M522.772 129.642C522.772 129.642 522.772 129.641 522.772 129.641L523.221 129.421L522.772 129.643C522.772 129.642 522.772 129.642 522.772 129.642ZM539.67 139.435C541.435 139.414 543.445 139.338 545.148 138.469L545.148 138.468C546.49 137.78 548.079 136.681 548.593 135.053C549.005 133.755 548.766 132.066 547.849 130.999L547.848 130.998C547.373 130.449 546.723 130.123 546.063 129.934C545.402 129.745 544.698 129.683 544.07 129.683C543.131 129.683 541.993 129.926 541.229 130.658L541.228 130.659C541.09 130.791 540.967 130.942 540.869 131.107C540.915 130.904 540.998 130.707 541.117 130.533L541.119 130.53C541.437 130.058 541.955 129.706 542.591 129.463C543.226 129.222 543.943 129.103 544.606 129.078L544.607 129.078C545.757 129.032 547.024 129.134 548.172 129.466C549.322 129.799 550.316 130.35 550.976 131.174C551.523 131.864 551.868 132.807 551.966 133.799C552.063 134.79 551.91 135.786 551.512 136.573C551.129 137.329 550.425 137.885 549.534 138.329C548.643 138.774 547.621 139.079 546.654 139.367L546.653 139.367C543.75 140.238 540.544 140.289 537.511 139.808L537.511 139.808C534.395 139.316 531.342 138.105 528.636 136.448L528.636 136.448C525.644 134.62 522.914 132.235 520.864 129.419L520.864 129.419C518.651 126.391 517.003 122.838 516.23 119.185C515.532 115.883 515.623 112.363 516.305 109.033C517.081 105.262 518.585 101.677 520.726 98.4728C522.344 96.0589 524.527 93.9855 526.917 92.2848L539.67 139.435ZM526.917 92.2847C529.045 90.7734 531.504 89.6975 534.022 88.8491L526.917 92.2847ZM534.023 88.849C536.05 88.1664 538.168 87.6951 540.288 87.5825L534.023 88.849Z" fill="url(#paint2_linear_349_2)"/>
<path d="M534.834 99.4471C539.053 96.883 543.851 95.1419 548.709 94.2818L548.709 94.2818C550.806 93.9108 553.958 93.933 556.55 94.0417C557.74 94.0916 558.823 94.1604 559.649 94.2204C559.323 93.9593 558.949 93.6639 558.549 93.3541C557.224 92.3298 555.636 91.1746 554.499 90.5714C552.54 89.5358 550.401 88.815 548.226 88.3329L548.226 88.3329C545.619 87.7553 542.932 87.4426 540.289 87.5825L534.834 99.4471ZM534.834 99.4471C531.674 101.367 528.896 103.974 526.628 106.877L526.628 106.877C524.805 109.213 523.355 111.896 522.439 114.721C521.512 117.578 521.017 120.647 521.198 123.664L521.198 123.665C521.325 125.72 521.857 127.791 522.772 129.642M534.834 99.4471L522.772 129.642M522.772 129.642C522.772 129.642 522.772 129.641 522.772 129.641L523.221 129.421L522.772 129.643C522.772 129.642 522.772 129.642 522.772 129.642ZM539.67 139.435C541.435 139.414 543.445 139.338 545.148 138.469L545.148 138.468C546.49 137.78 548.079 136.681 548.593 135.053C549.005 133.755 548.766 132.066 547.849 130.999L547.848 130.998C547.373 130.449 546.723 130.123 546.063 129.934C545.402 129.745 544.698 129.683 544.07 129.683C543.131 129.683 541.993 129.926 541.229 130.658L541.228 130.659C541.09 130.791 540.967 130.942 540.869 131.107C540.915 130.904 540.998 130.707 541.117 130.533L541.119 130.53C541.437 130.058 541.955 129.706 542.591 129.463C543.226 129.222 543.943 129.103 544.606 129.078L544.607 129.078C545.757 129.032 547.024 129.134 548.172 129.466C549.322 129.799 550.316 130.35 550.976 131.174C551.523 131.864 551.868 132.807 551.966 133.799C552.063 134.79 551.91 135.786 551.512 136.573C551.129 137.329 550.425 137.885 549.534 138.329C548.643 138.774 547.621 139.079 546.654 139.367L546.653 139.367C543.75 140.238 540.544 140.289 537.511 139.808L537.511 139.808C534.395 139.316 531.342 138.105 528.636 136.448L528.636 136.448C525.644 134.62 522.914 132.235 520.864 129.419L520.864 129.419C518.651 126.391 517.003 122.838 516.23 119.185C515.532 115.883 515.623 112.363 516.305 109.033C517.081 105.262 518.585 101.677 520.726 98.4728C522.344 96.0589 524.527 93.9855 526.917 92.2848L539.67 139.435ZM526.917 92.2847C529.045 90.7734 531.504 89.6975 534.022 88.8491L526.917 92.2847ZM534.023 88.849C536.05 88.1664 538.168 87.6951 540.288 87.5825L534.023 88.849Z" fill="white"/>
<path d="M534.834 99.4471C539.053 96.883 543.851 95.1419 548.709 94.2818L548.709 94.2818C550.806 93.9108 553.958 93.933 556.55 94.0417C557.74 94.0916 558.823 94.1604 559.649 94.2204C559.323 93.9593 558.949 93.6639 558.549 93.3541C557.224 92.3298 555.636 91.1746 554.499 90.5714C552.54 89.5358 550.401 88.815 548.226 88.3329L548.226 88.3329C545.619 87.7553 542.932 87.4426 540.289 87.5825L534.834 99.4471ZM534.834 99.4471C531.674 101.367 528.896 103.974 526.628 106.877L526.628 106.877C524.805 109.213 523.355 111.896 522.439 114.721C521.512 117.578 521.017 120.647 521.198 123.664L521.198 123.665C521.325 125.72 521.857 127.791 522.772 129.642M534.834 99.4471L522.772 129.642M522.772 129.642C522.772 129.642 522.772 129.641 522.772 129.641L523.221 129.421L522.772 129.643C522.772 129.642 522.772 129.642 522.772 129.642ZM539.67 139.435C541.435 139.414 543.445 139.338 545.148 138.469L545.148 138.468C546.49 137.78 548.079 136.681 548.593 135.053C549.005 133.755 548.766 132.066 547.849 130.999L547.848 130.998C547.373 130.449 546.723 130.123 546.063 129.934C545.402 129.745 544.698 129.683 544.07 129.683C543.131 129.683 541.993 129.926 541.229 130.658L541.228 130.659C541.09 130.791 540.967 130.942 540.869 131.107C540.915 130.904 540.998 130.707 541.117 130.533L541.119 130.53C541.437 130.058 541.955 129.706 542.591 129.463C543.226 129.222 543.943 129.103 544.606 129.078L544.607 129.078C545.757 129.032 547.024 129.134 548.172 129.466C549.322 129.799 550.316 130.35 550.976 131.174C551.523 131.864 551.868 132.807 551.966 133.799C552.063 134.79 551.91 135.786 551.512 136.573C551.129 137.329 550.425 137.885 549.534 138.329C548.643 138.774 547.621 139.079 546.654 139.367L546.653 139.367C543.75 140.238 540.544 140.289 537.511 139.808L537.511 139.808C534.395 139.316 531.342 138.105 528.636 136.448L528.636 136.448C525.644 134.62 522.914 132.235 520.864 129.419L520.864 129.419C518.651 126.391 517.003 122.838 516.23 119.185C515.532 115.883 515.623 112.363 516.305 109.033C517.081 105.262 518.585 101.677 520.726 98.4728C522.344 96.0589 524.527 93.9855 526.917 92.2848L539.67 139.435ZM526.917 92.2847C529.045 90.7734 531.504 89.6975 534.022 88.8491L526.917 92.2847ZM534.023 88.849C536.05 88.1664 538.168 87.6951 540.288 87.5825L534.023 88.849Z" stroke="white"/>
<path d="M519.885 148.571C519.885 147.394 520.235 146.455 520.923 145.713C520.419 146.545 520.184 147.565 520.184 148.734C520.184 149.734 520.382 150.611 520.798 151.341C520.196 150.633 519.885 149.719 519.885 148.571ZM528.268 146.775C528.187 146.451 528.062 146.137 527.895 145.837C528.452 146.491 528.738 147.324 528.738 148.373C528.738 149.665 528.347 150.678 527.583 151.457C528.152 150.541 528.453 149.553 528.453 148.475C528.453 147.849 528.396 147.282 528.268 146.775Z" fill="url(#paint3_linear_349_2)"/>
<path d="M519.885 148.571C519.885 147.394 520.235 146.455 520.923 145.713C520.419 146.545 520.184 147.565 520.184 148.734C520.184 149.734 520.382 150.611 520.798 151.341C520.196 150.633 519.885 149.719 519.885 148.571ZM528.268 146.775C528.187 146.451 528.062 146.137 527.895 145.837C528.452 146.491 528.738 147.324 528.738 148.373C528.738 149.665 528.347 150.678 527.583 151.457C528.152 150.541 528.453 149.553 528.453 148.475C528.453 147.849 528.396 147.282 528.268 146.775Z" fill="white"/>
<path d="M519.885 148.571C519.885 147.394 520.235 146.455 520.923 145.713C520.419 146.545 520.184 147.565 520.184 148.734C520.184 149.734 520.382 150.611 520.798 151.341C520.196 150.633 519.885 149.719 519.885 148.571ZM528.268 146.775C528.187 146.451 528.062 146.137 527.895 145.837C528.452 146.491 528.738 147.324 528.738 148.373C528.738 149.665 528.347 150.678 527.583 151.457C528.152 150.541 528.453 149.553 528.453 148.475C528.453 147.849 528.396 147.282 528.268 146.775Z" stroke="white"/>
<path d="M539.39 145.22C539.361 145.273 539.332 145.325 539.303 145.378L539.418 146.218C539.487 146.721 539.562 147.358 539.644 148.142C539.644 148.143 539.644 148.144 539.645 148.145L539.147 148.196C539.236 148.979 539.31 149.767 539.372 150.563L539.39 145.22ZM539.39 145.22C539.446 145.75 539.493 146.188 539.53 146.534C539.57 146.914 539.599 147.184 539.615 147.344L539.615 147.344L539.616 147.347C539.636 147.532 539.656 147.712 539.675 147.885C539.789 148.92 539.88 149.745 539.957 150.365L539.956 150.365L539.957 150.371C540.03 150.909 540.122 151.577 540.23 152.365C540.238 152.422 540.246 152.481 540.255 152.54L540.248 152.539L540.215 152.537L540.182 152.539L540.049 152.548C539.985 151.848 539.925 151.174 539.87 150.523" fill="url(#paint4_linear_349_2)"/>
<path d="M539.39 145.22C539.361 145.273 539.332 145.325 539.303 145.378L539.418 146.218C539.487 146.721 539.562 147.358 539.644 148.142C539.644 148.143 539.644 148.144 539.645 148.145L539.147 148.196C539.236 148.979 539.31 149.767 539.372 150.563L539.39 145.22ZM539.39 145.22C539.446 145.75 539.493 146.188 539.53 146.534C539.57 146.914 539.599 147.184 539.615 147.344L539.615 147.344L539.616 147.347C539.636 147.532 539.656 147.712 539.675 147.885C539.789 148.92 539.88 149.745 539.957 150.365L539.956 150.365L539.957 150.371C540.03 150.909 540.122 151.577 540.23 152.365C540.238 152.422 540.246 152.481 540.255 152.54L540.248 152.539L540.215 152.537L540.182 152.539L540.049 152.548C539.985 151.848 539.925 151.174 539.87 150.523" fill="white"/>
<path d="M539.39 145.22C539.361 145.273 539.332 145.325 539.303 145.378L539.418 146.218C539.487 146.721 539.562 147.358 539.644 148.142C539.644 148.143 539.644 148.144 539.645 148.145L539.147 148.196C539.236 148.979 539.31 149.767 539.372 150.563L539.39 145.22ZM539.39 145.22C539.446 145.75 539.493 146.188 539.53 146.534C539.57 146.914 539.599 147.184 539.615 147.344L539.615 147.344L539.616 147.347C539.636 147.532 539.656 147.712 539.675 147.885C539.789 148.92 539.88 149.745 539.957 150.365L539.956 150.365L539.957 150.371C540.03 150.909 540.122 151.577 540.23 152.365C540.238 152.422 540.246 152.481 540.255 152.54L540.248 152.539L540.215 152.537L540.182 152.539L540.049 152.548C539.985 151.848 539.925 151.174 539.87 150.523" stroke="white"/>
<path d="M571.396 146.775C571.313 146.443 571.184 146.121 571.01 145.815C571.581 146.471 571.873 147.312 571.873 148.373C571.873 149.675 571.475 150.694 570.699 151.477C570.701 151.473 570.704 151.469 570.706 151.466L570.706 151.466L570.709 151.462C571.288 150.541 571.581 149.552 571.581 148.475C571.581 147.849 571.524 147.282 571.396 146.775ZM563.312 148.734C563.312 149.723 563.506 150.591 563.912 151.317C563.324 150.612 563.02 149.706 563.02 148.571C563.02 147.405 563.364 146.473 564.038 145.734C563.543 146.562 563.312 147.575 563.312 148.734Z" fill="url(#paint5_linear_349_2)"/>
<path d="M571.396 146.775C571.313 146.443 571.184 146.121 571.01 145.815C571.581 146.471 571.873 147.312 571.873 148.373C571.873 149.675 571.475 150.694 570.699 151.477C570.701 151.473 570.704 151.469 570.706 151.466L570.706 151.466L570.709 151.462C571.288 150.541 571.581 149.552 571.581 148.475C571.581 147.849 571.524 147.282 571.396 146.775ZM563.312 148.734C563.312 149.723 563.506 150.591 563.912 151.317C563.324 150.612 563.02 149.706 563.02 148.571C563.02 147.405 563.364 146.473 564.038 145.734C563.543 146.562 563.312 147.575 563.312 148.734Z" fill="white"/>
<path d="M571.396 146.775C571.313 146.443 571.184 146.121 571.01 145.815C571.581 146.471 571.873 147.312 571.873 148.373C571.873 149.675 571.475 150.694 570.699 151.477C570.701 151.473 570.704 151.469 570.706 151.466L570.706 151.466L570.709 151.462C571.288 150.541 571.581 149.552 571.581 148.475C571.581 147.849 571.524 147.282 571.396 146.775ZM563.312 148.734C563.312 149.723 563.506 150.591 563.912 151.317C563.324 150.612 563.02 149.706 563.02 148.571C563.02 147.405 563.364 146.473 564.038 145.734C563.543 146.562 563.312 147.575 563.312 148.734Z" stroke="white"/>
<path d="M516.63 151.55L513.904 148.366C513.91 148.36 513.916 148.354 513.923 148.349L513.977 148.411C515.036 149.62 516.103 150.822 517.168 152.023L517.6 152.554L517.407 152.565C517.311 152.434 517.213 152.305 517.115 152.177C516.957 151.955 516.794 151.75 516.636 151.558L516.637 151.558L516.63 151.55ZM512.656 144.612V148.142V148.192L512.666 148.24C512.671 148.264 512.677 148.289 512.685 148.313C512.669 148.358 512.656 148.416 512.656 148.482V152.536L512.613 152.533L512.578 152.53L512.543 152.533L512.5 152.536V144.612L512.543 144.615L512.578 144.618L512.613 144.615L512.656 144.612Z" fill="url(#paint6_linear_349_2)"/>
<path d="M516.63 151.55L513.904 148.366C513.91 148.36 513.916 148.354 513.923 148.349L513.977 148.411C515.036 149.62 516.103 150.822 517.168 152.023L517.6 152.554L517.407 152.565C517.311 152.434 517.213 152.305 517.115 152.177C516.957 151.955 516.794 151.75 516.636 151.558L516.637 151.558L516.63 151.55ZM512.656 144.612V148.142V148.192L512.666 148.24C512.671 148.264 512.677 148.289 512.685 148.313C512.669 148.358 512.656 148.416 512.656 148.482V152.536L512.613 152.533L512.578 152.53L512.543 152.533L512.5 152.536V144.612L512.543 144.615L512.578 144.618L512.613 144.615L512.656 144.612Z" fill="white"/>
<path d="M516.63 151.55L513.904 148.366C513.91 148.36 513.916 148.354 513.923 148.349L513.977 148.411C515.036 149.62 516.103 150.822 517.168 152.023L517.6 152.554L517.407 152.565C517.311 152.434 517.213 152.305 517.115 152.177C516.957 151.955 516.794 151.75 516.636 151.558L516.637 151.558L516.63 151.55ZM512.656 144.612V148.142V148.192L512.666 148.24C512.671 148.264 512.677 148.289 512.685 148.313C512.669 148.358 512.656 148.416 512.656 148.482V152.536L512.613 152.533L512.578 152.53L512.543 152.533L512.5 152.536V144.612L512.543 144.615L512.578 144.618L512.613 144.615L512.656 144.612Z" stroke="white"/>
<path d="M598.5 142.107V98.1572H611.893C617.089 98.1572 620.911 99.1032 623.461 100.933L623.462 100.934C625.989 102.736 627.271 105.415 627.271 109.048C627.271 111.252 626.686 113.086 625.545 114.586C624.387 116.101 622.642 117.291 620.238 118.152L618.626 118.729L620.295 119.11C622.942 119.714 624.973 120.932 626.45 122.765C627.927 124.603 628.672 126.848 628.672 129.53C628.672 133.705 627.138 136.798 624.094 138.897C621.019 141.017 616.411 142.113 610.186 142.113C610.186 142.113 610.186 142.113 610.186 142.113L598.5 142.107ZM616.591 114.441L616.592 114.441C617.913 113.416 618.567 111.956 618.567 110.149C618.567 108.341 617.954 106.944 616.661 106.047C615.411 105.162 613.529 104.773 611.097 104.773H607.785H607.285V105.273V115.433H607.779V115.933H607.785H608.285H611.342C613.519 115.933 615.279 115.456 616.591 114.441ZM607.279 134.48V134.98H607.779H612.246C614.47 134.98 616.284 134.429 617.63 133.283L617.632 133.281C618.988 132.113 619.649 130.532 619.649 128.564C619.649 126.638 618.995 125.099 617.664 124.01C616.352 122.923 614.514 122.427 612.246 122.427H607.779H607.279V122.927V134.48Z" fill="url(#paint7_linear_349_2)"/>
<path d="M598.5 142.107V98.1572H611.893C617.089 98.1572 620.911 99.1032 623.461 100.933L623.462 100.934C625.989 102.736 627.271 105.415 627.271 109.048C627.271 111.252 626.686 113.086 625.545 114.586C624.387 116.101 622.642 117.291 620.238 118.152L618.626 118.729L620.295 119.11C622.942 119.714 624.973 120.932 626.45 122.765C627.927 124.603 628.672 126.848 628.672 129.53C628.672 133.705 627.138 136.798 624.094 138.897C621.019 141.017 616.411 142.113 610.186 142.113C610.186 142.113 610.186 142.113 610.186 142.113L598.5 142.107ZM616.591 114.441L616.592 114.441C617.913 113.416 618.567 111.956 618.567 110.149C618.567 108.341 617.954 106.944 616.661 106.047C615.411 105.162 613.529 104.773 611.097 104.773H607.785H607.285V105.273V115.433H607.779V115.933H607.785H608.285H611.342C613.519 115.933 615.279 115.456 616.591 114.441ZM607.279 134.48V134.98H607.779H612.246C614.47 134.98 616.284 134.429 617.63 133.283L617.632 133.281C618.988 132.113 619.649 130.532 619.649 128.564C619.649 126.638 618.995 125.099 617.664 124.01C616.352 122.923 614.514 122.427 612.246 122.427H607.779H607.279V122.927V134.48Z" fill="white"/>
<path d="M598.5 142.107V98.1572H611.893C617.089 98.1572 620.911 99.1032 623.461 100.933L623.462 100.934C625.989 102.736 627.271 105.415 627.271 109.048C627.271 111.252 626.686 113.086 625.545 114.586C624.387 116.101 622.642 117.291 620.238 118.152L618.626 118.729L620.295 119.11C622.942 119.714 624.973 120.932 626.45 122.765C627.927 124.603 628.672 126.848 628.672 129.53C628.672 133.705 627.138 136.798 624.094 138.897C621.019 141.017 616.411 142.113 610.186 142.113C610.186 142.113 610.186 142.113 610.186 142.113L598.5 142.107ZM616.591 114.441L616.592 114.441C617.913 113.416 618.567 111.956 618.567 110.149C618.567 108.341 617.954 106.944 616.661 106.047C615.411 105.162 613.529 104.773 611.097 104.773H607.785H607.285V105.273V115.433H607.779V115.933H607.785H608.285H611.342C613.519 115.933 615.279 115.456 616.591 114.441ZM607.279 134.48V134.98H607.779H612.246C614.47 134.98 616.284 134.429 617.63 133.283L617.632 133.281C618.988 132.113 619.649 130.532 619.649 128.564C619.649 126.638 618.995 125.099 617.664 124.01C616.352 122.923 614.514 122.427 612.246 122.427H607.779H607.279V122.927V134.48Z" stroke="white"/>
<path d="M688.072 117.524L702.767 98.1572H714.255L697.945 118.733L697.701 119.041L697.941 119.35L715.601 142.107H703.92L688.069 121.594L687.174 120.435V121.9V142.107H677.572V98.1572H687.174V117.221V118.708L688.072 117.524Z" fill="url(#paint8_linear_349_2)"/>
<path d="M688.072 117.524L702.767 98.1572H714.255L697.945 118.733L697.701 119.041L697.941 119.35L715.601 142.107H703.92L688.069 121.594L687.174 120.435V121.9V142.107H677.572V98.1572H687.174V117.221V118.708L688.072 117.524Z" fill="white"/>
<path d="M688.072 117.524L702.767 98.1572H714.255L697.945 118.733L697.701 119.041L697.941 119.35L715.601 142.107H703.92L688.069 121.594L687.174 120.435V121.9V142.107H677.572V98.1572H687.174V117.221V118.708L688.072 117.524Z" stroke="white"/>
<path d="M719.585 98.1572H747.935V106.555H737.085H736.585V107.055V142.107H726.855V107.055V106.555H726.355H712.925L719.585 98.1572Z" fill="url(#paint9_linear_349_2)"/>
<path d="M719.585 98.1572H747.935V106.555H737.085H736.585V107.055V142.107H726.855V107.055V106.555H726.355H712.925L719.585 98.1572Z" fill="white"/>
<path d="M719.585 98.1572H747.935V106.555H737.085H736.585V107.055V142.107H726.855V107.055V106.555H726.355H712.925L719.585 98.1572Z" stroke="white"/>
<path d="M751.77 142.107V98.1572H761.5V142.107H751.77Z" fill="url(#paint10_linear_349_2)"/>
<path d="M751.77 142.107V98.1572H761.5V142.107H751.77Z" fill="white"/>
<path d="M751.77 142.107V98.1572H761.5V142.107H751.77Z" stroke="white"/>
<path d="M650.967 117.877L638.979 142.107H629.29L651.415 97.3906L673.54 142.107H663.85L651.863 117.877L651.415 116.971L650.967 117.877Z" fill="url(#paint11_linear_349_2)"/>
<path d="M650.967 117.877L638.979 142.107H629.29L651.415 97.3906L673.54 142.107H663.85L651.863 117.877L651.415 116.971L650.967 117.877Z" fill="white"/>
<path d="M650.967 117.877L638.979 142.107H629.29L651.415 97.3906L673.54 142.107H663.85L651.863 117.877L651.415 116.971L650.967 117.877Z" stroke="white"/>
<path d="M651.916 90.0466V86.7644C657.539 87.0184 662.055 91.534 662.309 97.1571H659.027C658.78 93.3422 655.731 90.2933 651.916 90.0466Z" fill="url(#paint12_linear_349_2)"/>
<path d="M651.916 90.0466V86.7644C657.539 87.0184 662.055 91.534 662.309 97.1571H659.027C658.78 93.3422 655.731 90.2933 651.916 90.0466Z" fill="white"/>
<path d="M651.916 90.0466V86.7644C657.539 87.0184 662.055 91.534 662.309 97.1571H659.027C658.78 93.3422 655.731 90.2933 651.916 90.0466Z" stroke="white"/>
<path d="M651.415 82.9039C643.439 82.9039 636.934 89.2379 636.67 97.1571H633.392C633.656 87.4302 641.624 79.6266 651.415 79.6266C661.206 79.6266 669.174 87.4302 669.439 97.1571H666.16C665.897 89.238 659.399 82.9039 651.415 82.9039Z" fill="url(#paint13_linear_349_2)"/>
<path d="M651.415 82.9039C643.439 82.9039 636.934 89.2379 636.67 97.1571H633.392C633.656 87.4302 641.624 79.6266 651.415 79.6266C661.206 79.6266 669.174 87.4302 669.439 97.1571H666.16C665.897 89.238 659.399 82.9039 651.415 82.9039Z" fill="white"/>
<path d="M651.415 82.9039C643.439 82.9039 636.934 89.2379 636.67 97.1571H633.392C633.656 87.4302 641.624 79.6266 651.415 79.6266C661.206 79.6266 669.174 87.4302 669.439 97.1571H666.16C665.897 89.238 659.399 82.9039 651.415 82.9039Z" stroke="white"/>
<path d="M651.916 72.5049C665.414 72.7679 676.305 83.6588 676.568 97.1572H673.29C673.028 85.4729 663.6 76.0451 651.916 75.7829V72.5049Z" fill="url(#paint14_linear_349_2)"/>
<path d="M651.916 72.5049C665.414 72.7679 676.305 83.6588 676.568 97.1572H673.29C673.028 85.4729 663.6 76.0451 651.916 75.7829V72.5049Z" fill="white"/>
<path d="M651.916 72.5049C665.414 72.7679 676.305 83.6588 676.568 97.1572H673.29C673.028 85.4729 663.6 76.0451 651.916 75.7829V72.5049Z" stroke="white"/>
</g>
<g filter="url(#filter1_ddi_349_2)">
<mask id="path-16-inside-1_349_2" fill="white">
<path d="M363.848 251V188.9H393.548C404.108 188.9 409.388 194.18 409.388 204.74V209.69C409.388 211.73 408.788 213.47 407.588 214.91L404.438 218.69L408.218 221.84C410.198 223.46 411.188 225.86 411.188 229.04V235.16C411.188 245.72 405.908 251 395.348 251H363.848ZM379.508 236.87H394.538C395.198 236.87 395.528 236.54 395.528 235.88V227.42C395.528 226.76 395.198 226.43 394.538 226.43H379.508V236.87ZM379.508 212.3H392.738C393.398 212.3 393.728 211.97 393.728 211.31V204.02C393.728 203.36 393.398 203.03 392.738 203.03H379.508V212.3ZM417.421 248.12L434.971 188.9H458.371L475.921 248.12L474.031 251H460.891L457.831 239.93H435.511L432.451 251H419.311L417.421 248.12ZM439.651 225.8H453.691L447.211 203.03H446.131L439.651 225.8ZM484.434 251V188.9H500.094V209.78L518.814 188.9H533.574L535.014 191.96L514.854 214.46L537.354 247.94L535.914 251H521.514L504.774 225.8L500.094 230.66V251H484.434ZM541.976 203.03V188.9H593.636V203.03H575.636V251H559.976V203.03H541.976ZM602.823 251V188.9H618.483V251H602.823ZM654.151 251V188.9H671.071L691.681 224.9V188.9H707.341V251H690.511L669.811 215V251H654.151ZM721.387 251V188.9H764.857V203.03H737.047V212.3H762.157V226.43H737.047V236.87H764.857V251H721.387ZM775.507 235.16V204.74C775.507 194.18 780.787 188.9 791.347 188.9H816.727L823.747 194.3V203.03H792.157C791.497 203.03 791.167 203.36 791.167 204.02V235.88C791.167 236.54 791.497 236.87 792.157 236.87H809.887V226.43H799.717V212.3H825.547V251H791.347C780.787 251 775.507 245.72 775.507 235.16ZM837.754 251V188.9H881.224V203.03H853.414V212.3H878.524V226.43H853.414V236.87H881.224V251H837.754ZM892.774 251V188.9H923.374C933.934 188.9 939.214 194.18 939.214 204.74V215.18C939.214 222.5 936.694 227.3 931.654 229.58L941.014 247.85L939.214 251H925.714L915.454 230.93H908.434V251H892.774ZM908.434 216.8H922.564C923.224 216.8 923.554 216.47 923.554 215.81V204.02C923.554 203.36 923.224 203.03 922.564 203.03H908.434V216.8ZM951.485 251V188.9H967.145V251H951.485ZM324.385 351V288.9H347.605C365.485 288.9 374.425 297.84 374.425 315.72V324.18C374.425 342.06 365.485 351 347.605 351H324.385ZM340.045 336.87H348.505C355.345 336.87 358.765 333.42 358.765 326.52V313.38C358.765 306.48 355.345 303.03 348.505 303.03H340.045V336.87ZM386.7 351V288.9H402.36V351H386.7ZM438.028 351V288.9H468.628C479.188 288.9 484.468 294.18 484.468 304.74V316.98C484.468 327.48 479.188 332.73 468.628 332.73H453.688V351H438.028ZM453.688 318.6H467.818C468.478 318.6 468.808 318.27 468.808 317.61V304.02C468.808 303.36 468.478 303.03 467.818 303.03H453.688V318.6ZM495.772 351V288.9H539.242V303.03H511.432V312.3H536.542V326.43H511.432V336.87H539.242V351H495.772ZM550.791 351V288.9H581.391C591.951 288.9 597.231 294.18 597.231 304.74V315.18C597.231 322.5 594.711 327.3 589.671 329.58L599.031 347.85L597.231 351H583.731L573.471 330.93H566.451V351H550.791ZM566.451 316.8H580.581C581.241 316.8 581.571 316.47 581.571 315.81V304.02C581.571 303.36 581.241 303.03 580.581 303.03H566.451V316.8ZM609.502 351V288.9H639.202C649.762 288.9 655.042 294.18 655.042 304.74V309.69C655.042 311.73 654.442 313.47 653.242 314.91L650.092 318.69L653.872 321.84C655.852 323.46 656.842 325.86 656.842 329.04V335.16C656.842 345.72 651.562 351 641.002 351H609.502ZM625.162 336.87H640.192C640.852 336.87 641.182 336.54 641.182 335.88V327.42C641.182 326.76 640.852 326.43 640.192 326.43H625.162V336.87ZM625.162 312.3H638.392C639.052 312.3 639.382 311.97 639.382 311.31V304.02C639.382 303.36 639.052 303.03 638.392 303.03H625.162V312.3ZM663.075 348.12L680.625 288.9H704.025L721.575 348.12L719.685 351H706.545L703.485 339.93H681.165L678.105 351H664.965L663.075 348.12ZM685.305 325.8H699.345L692.865 303.03H691.785L685.305 325.8ZM720.746 303.03V288.9H772.406V303.03H754.406V351H738.746V303.03H720.746ZM771.62 348.12L789.17 288.9H812.57L830.12 348.12L828.23 351H815.09L812.03 339.93H789.71L786.65 351H773.51L771.62 348.12ZM793.85 325.8H807.89L801.41 303.03H800.33L793.85 325.8ZM835.933 345.6V336.87H863.923C864.583 336.87 864.913 336.54 864.913 335.88V329.76C864.913 328.92 864.553 328.44 863.833 328.32L847.183 324.9C839.683 323.46 835.933 318.45 835.933 309.87V304.74C835.933 294.18 841.213 288.9 851.773 288.9H871.753L878.773 294.3V303.03H852.583C851.923 303.03 851.593 303.36 851.593 304.02V309.78C851.593 310.56 851.953 311.04 852.673 311.22L869.323 314.46C876.823 316.02 880.573 321.06 880.573 329.58V335.16C880.573 345.72 875.293 351 864.733 351H842.953L835.933 345.6ZM886.405 348.12L903.955 288.9H927.355L944.905 348.12L943.015 351H929.875L926.815 339.93H904.495L901.435 351H888.295L886.405 348.12ZM908.635 325.8H922.675L916.195 303.03H915.115L908.635 325.8ZM953.418 351V288.9H970.338L990.948 324.9V288.9H1006.61V351H989.778L969.078 315V351H953.418Z"/>
</mask>
<path d="M363.848 251V188.9H393.548C404.108 188.9 409.388 194.18 409.388 204.74V209.69C409.388 211.73 408.788 213.47 407.588 214.91L404.438 218.69L408.218 221.84C410.198 223.46 411.188 225.86 411.188 229.04V235.16C411.188 245.72 405.908 251 395.348 251H363.848ZM379.508 236.87H394.538C395.198 236.87 395.528 236.54 395.528 235.88V227.42C395.528 226.76 395.198 226.43 394.538 226.43H379.508V236.87ZM379.508 212.3H392.738C393.398 212.3 393.728 211.97 393.728 211.31V204.02C393.728 203.36 393.398 203.03 392.738 203.03H379.508V212.3ZM417.421 248.12L434.971 188.9H458.371L475.921 248.12L474.031 251H460.891L457.831 239.93H435.511L432.451 251H419.311L417.421 248.12ZM439.651 225.8H453.691L447.211 203.03H446.131L439.651 225.8ZM484.434 251V188.9H500.094V209.78L518.814 188.9H533.574L535.014 191.96L514.854 214.46L537.354 247.94L535.914 251H521.514L504.774 225.8L500.094 230.66V251H484.434ZM541.976 203.03V188.9H593.636V203.03H575.636V251H559.976V203.03H541.976ZM602.823 251V188.9H618.483V251H602.823ZM654.151 251V188.9H671.071L691.681 224.9V188.9H707.341V251H690.511L669.811 215V251H654.151ZM721.387 251V188.9H764.857V203.03H737.047V212.3H762.157V226.43H737.047V236.87H764.857V251H721.387ZM775.507 235.16V204.74C775.507 194.18 780.787 188.9 791.347 188.9H816.727L823.747 194.3V203.03H792.157C791.497 203.03 791.167 203.36 791.167 204.02V235.88C791.167 236.54 791.497 236.87 792.157 236.87H809.887V226.43H799.717V212.3H825.547V251H791.347C780.787 251 775.507 245.72 775.507 235.16ZM837.754 251V188.9H881.224V203.03H853.414V212.3H878.524V226.43H853.414V236.87H881.224V251H837.754ZM892.774 251V188.9H923.374C933.934 188.9 939.214 194.18 939.214 204.74V215.18C939.214 222.5 936.694 227.3 931.654 229.58L941.014 247.85L939.214 251H925.714L915.454 230.93H908.434V251H892.774ZM908.434 216.8H922.564C923.224 216.8 923.554 216.47 923.554 215.81V204.02C923.554 203.36 923.224 203.03 922.564 203.03H908.434V216.8ZM951.485 251V188.9H967.145V251H951.485ZM324.385 351V288.9H347.605C365.485 288.9 374.425 297.84 374.425 315.72V324.18C374.425 342.06 365.485 351 347.605 351H324.385ZM340.045 336.87H348.505C355.345 336.87 358.765 333.42 358.765 326.52V313.38C358.765 306.48 355.345 303.03 348.505 303.03H340.045V336.87ZM386.7 351V288.9H402.36V351H386.7ZM438.028 351V288.9H468.628C479.188 288.9 484.468 294.18 484.468 304.74V316.98C484.468 327.48 479.188 332.73 468.628 332.73H453.688V351H438.028ZM453.688 318.6H467.818C468.478 318.6 468.808 318.27 468.808 317.61V304.02C468.808 303.36 468.478 303.03 467.818 303.03H453.688V318.6ZM495.772 351V288.9H539.242V303.03H511.432V312.3H536.542V326.43H511.432V336.87H539.242V351H495.772ZM550.791 351V288.9H581.391C591.951 288.9 597.231 294.18 597.231 304.74V315.18C597.231 322.5 594.711 327.3 589.671 329.58L599.031 347.85L597.231 351H583.731L573.471 330.93H566.451V351H550.791ZM566.451 316.8H580.581C581.241 316.8 581.571 316.47 581.571 315.81V304.02C581.571 303.36 581.241 303.03 580.581 303.03H566.451V316.8ZM609.502 351V288.9H639.202C649.762 288.9 655.042 294.18 655.042 304.74V309.69C655.042 311.73 654.442 313.47 653.242 314.91L650.092 318.69L653.872 321.84C655.852 323.46 656.842 325.86 656.842 329.04V335.16C656.842 345.72 651.562 351 641.002 351H609.502ZM625.162 336.87H640.192C640.852 336.87 641.182 336.54 641.182 335.88V327.42C641.182 326.76 640.852 326.43 640.192 326.43H625.162V336.87ZM625.162 312.3H638.392C639.052 312.3 639.382 311.97 639.382 311.31V304.02C639.382 303.36 639.052 303.03 638.392 303.03H625.162V312.3ZM663.075 348.12L680.625 288.9H704.025L721.575 348.12L719.685 351H706.545L703.485 339.93H681.165L678.105 351H664.965L663.075 348.12ZM685.305 325.8H699.345L692.865 303.03H691.785L685.305 325.8ZM720.746 303.03V288.9H772.406V303.03H754.406V351H738.746V303.03H720.746ZM771.62 348.12L789.17 288.9H812.57L830.12 348.12L828.23 351H815.09L812.03 339.93H789.71L786.65 351H773.51L771.62 348.12ZM793.85 325.8H807.89L801.41 303.03H800.33L793.85 325.8ZM835.933 345.6V336.87H863.923C864.583 336.87 864.913 336.54 864.913 335.88V329.76C864.913 328.92 864.553 328.44 863.833 328.32L847.183 324.9C839.683 323.46 835.933 318.45 835.933 309.87V304.74C835.933 294.18 841.213 288.9 851.773 288.9H871.753L878.773 294.3V303.03H852.583C851.923 303.03 851.593 303.36 851.593 304.02V309.78C851.593 310.56 851.953 311.04 852.673 311.22L869.323 314.46C876.823 316.02 880.573 321.06 880.573 329.58V335.16C880.573 345.72 875.293 351 864.733 351H842.953L835.933 345.6ZM886.405 348.12L903.955 288.9H927.355L944.905 348.12L943.015 351H929.875L926.815 339.93H904.495L901.435 351H888.295L886.405 348.12ZM908.635 325.8H922.675L916.195 303.03H915.115L908.635 325.8ZM953.418 351V288.9H970.338L990.948 324.9V288.9H1006.61V351H989.778L969.078 315V351H953.418Z" fill="url(#paint15_linear_349_2)"/>
<path d="M363.848 251V188.9H393.548C404.108 188.9 409.388 194.18 409.388 204.74V209.69C409.388 211.73 408.788 213.47 407.588 214.91L404.438 218.69L408.218 221.84C410.198 223.46 411.188 225.86 411.188 229.04V235.16C411.188 245.72 405.908 251 395.348 251H363.848ZM379.508 236.87H394.538C395.198 236.87 395.528 236.54 395.528 235.88V227.42C395.528 226.76 395.198 226.43 394.538 226.43H379.508V236.87ZM379.508 212.3H392.738C393.398 212.3 393.728 211.97 393.728 211.31V204.02C393.728 203.36 393.398 203.03 392.738 203.03H379.508V212.3ZM417.421 248.12L434.971 188.9H458.371L475.921 248.12L474.031 251H460.891L457.831 239.93H435.511L432.451 251H419.311L417.421 248.12ZM439.651 225.8H453.691L447.211 203.03H446.131L439.651 225.8ZM484.434 251V188.9H500.094V209.78L518.814 188.9H533.574L535.014 191.96L514.854 214.46L537.354 247.94L535.914 251H521.514L504.774 225.8L500.094 230.66V251H484.434ZM541.976 203.03V188.9H593.636V203.03H575.636V251H559.976V203.03H541.976ZM602.823 251V188.9H618.483V251H602.823ZM654.151 251V188.9H671.071L691.681 224.9V188.9H707.341V251H690.511L669.811 215V251H654.151ZM721.387 251V188.9H764.857V203.03H737.047V212.3H762.157V226.43H737.047V236.87H764.857V251H721.387ZM775.507 235.16V204.74C775.507 194.18 780.787 188.9 791.347 188.9H816.727L823.747 194.3V203.03H792.157C791.497 203.03 791.167 203.36 791.167 204.02V235.88C791.167 236.54 791.497 236.87 792.157 236.87H809.887V226.43H799.717V212.3H825.547V251H791.347C780.787 251 775.507 245.72 775.507 235.16ZM837.754 251V188.9H881.224V203.03H853.414V212.3H878.524V226.43H853.414V236.87H881.224V251H837.754ZM892.774 251V188.9H923.374C933.934 188.9 939.214 194.18 939.214 204.74V215.18C939.214 222.5 936.694 227.3 931.654 229.58L941.014 247.85L939.214 251H925.714L915.454 230.93H908.434V251H892.774ZM908.434 216.8H922.564C923.224 216.8 923.554 216.47 923.554 215.81V204.02C923.554 203.36 923.224 203.03 922.564 203.03H908.434V216.8ZM951.485 251V188.9H967.145V251H951.485ZM324.385 351V288.9H347.605C365.485 288.9 374.425 297.84 374.425 315.72V324.18C374.425 342.06 365.485 351 347.605 351H324.385ZM340.045 336.87H348.505C355.345 336.87 358.765 333.42 358.765 326.52V313.38C358.765 306.48 355.345 303.03 348.505 303.03H340.045V336.87ZM386.7 351V288.9H402.36V351H386.7ZM438.028 351V288.9H468.628C479.188 288.9 484.468 294.18 484.468 304.74V316.98C484.468 327.48 479.188 332.73 468.628 332.73H453.688V351H438.028ZM453.688 318.6H467.818C468.478 318.6 468.808 318.27 468.808 317.61V304.02C468.808 303.36 468.478 303.03 467.818 303.03H453.688V318.6ZM495.772 351V288.9H539.242V303.03H511.432V312.3H536.542V326.43H511.432V336.87H539.242V351H495.772ZM550.791 351V288.9H581.391C591.951 288.9 597.231 294.18 597.231 304.74V315.18C597.231 322.5 594.711 327.3 589.671 329.58L599.031 347.85L597.231 351H583.731L573.471 330.93H566.451V351H550.791ZM566.451 316.8H580.581C581.241 316.8 581.571 316.47 581.571 315.81V304.02C581.571 303.36 581.241 303.03 580.581 303.03H566.451V316.8ZM609.502 351V288.9H639.202C649.762 288.9 655.042 294.18 655.042 304.74V309.69C655.042 311.73 654.442 313.47 653.242 314.91L650.092 318.69L653.872 321.84C655.852 323.46 656.842 325.86 656.842 329.04V335.16C656.842 345.72 651.562 351 641.002 351H609.502ZM625.162 336.87H640.192C640.852 336.87 641.182 336.54 641.182 335.88V327.42C641.182 326.76 640.852 326.43 640.192 326.43H625.162V336.87ZM625.162 312.3H638.392C639.052 312.3 639.382 311.97 639.382 311.31V304.02C639.382 303.36 639.052 303.03 638.392 303.03H625.162V312.3ZM663.075 348.12L680.625 288.9H704.025L721.575 348.12L719.685 351H706.545L703.485 339.93H681.165L678.105 351H664.965L663.075 348.12ZM685.305 325.8H699.345L692.865 303.03H691.785L685.305 325.8ZM720.746 303.03V288.9H772.406V303.03H754.406V351H738.746V303.03H720.746ZM771.62 348.12L789.17 288.9H812.57L830.12 348.12L828.23 351H815.09L812.03 339.93H789.71L786.65 351H773.51L771.62 348.12ZM793.85 325.8H807.89L801.41 303.03H800.33L793.85 325.8ZM835.933 345.6V336.87H863.923C864.583 336.87 864.913 336.54 864.913 335.88V329.76C864.913 328.92 864.553 328.44 863.833 328.32L847.183 324.9C839.683 323.46 835.933 318.45 835.933 309.87V304.74C835.933 294.18 841.213 288.9 851.773 288.9H871.753L878.773 294.3V303.03H852.583C851.923 303.03 851.593 303.36 851.593 304.02V309.78C851.593 310.56 851.953 311.04 852.673 311.22L869.323 314.46C876.823 316.02 880.573 321.06 880.573 329.58V335.16C880.573 345.72 875.293 351 864.733 351H842.953L835.933 345.6ZM886.405 348.12L903.955 288.9H927.355L944.905 348.12L943.015 351H929.875L926.815 339.93H904.495L901.435 351H888.295L886.405 348.12ZM908.635 325.8H922.675L916.195 303.03H915.115L908.635 325.8ZM953.418 351V288.9H970.338L990.948 324.9V288.9H1006.61V351H989.778L969.078 315V351H953.418Z" fill="white"/>
<path d="M363.848 251H362.848V252H363.848V251ZM363.848 188.9V187.9H362.848V188.9H363.848ZM407.588 214.91L406.82 214.27L407.588 214.91ZM404.438 218.69L403.67 218.05L403.03 218.818L403.798 219.458L404.438 218.69ZM408.218 221.84L407.578 222.608L407.585 222.614L408.218 221.84ZM379.508 236.87H378.508V237.87H379.508V236.87ZM379.508 226.43V225.43H378.508V226.43H379.508ZM379.508 212.3H378.508V213.3H379.508V212.3ZM379.508 203.03V202.03H378.508V203.03H379.508ZM364.848 251V188.9H362.848V251H364.848ZM363.848 189.9H393.548V187.9H363.848V189.9ZM393.548 189.9C398.674 189.9 402.335 191.181 404.721 193.567C407.107 195.953 408.388 199.614 408.388 204.74H410.388C410.388 199.306 409.029 195.047 406.135 192.153C403.242 189.259 398.982 187.9 393.548 187.9V189.9ZM408.388 204.74V209.69H410.388V204.74H408.388ZM408.388 209.69C408.388 211.518 407.857 213.026 406.82 214.27L408.356 215.55C409.72 213.914 410.388 211.942 410.388 209.69H408.388ZM406.82 214.27L403.67 218.05L405.206 219.33L408.356 215.55L406.82 214.27ZM403.798 219.458L407.578 222.608L408.858 221.072L405.078 217.922L403.798 219.458ZM407.585 222.614C409.277 223.999 410.188 226.08 410.188 229.04H412.188C412.188 225.64 411.119 222.921 408.851 221.066L407.585 222.614ZM410.188 229.04V235.16H412.188V229.04H410.188ZM410.188 235.16C410.188 240.286 408.907 243.947 406.521 246.333C404.135 248.719 400.474 250 395.348 250V252C400.782 252 405.042 250.641 407.935 247.747C410.829 244.853 412.188 240.594 412.188 235.16H410.188ZM395.348 250H363.848V252H395.348V250ZM379.508 237.87H394.538V235.87H379.508V237.87ZM394.538 237.87C395.022 237.87 395.569 237.748 395.988 237.33C396.406 236.911 396.528 236.364 396.528 235.88H394.528C394.528 235.921 394.526 235.951 394.523 235.971C394.52 235.99 394.517 235.998 394.518 235.997C394.518 235.995 394.522 235.985 394.531 235.969C394.536 235.961 394.542 235.952 394.549 235.943C394.556 235.934 394.565 235.924 394.574 235.915C394.582 235.906 394.592 235.898 394.601 235.891C394.61 235.884 394.619 235.878 394.627 235.873C394.643 235.864 394.653 235.86 394.655 235.859C394.656 235.859 394.648 235.862 394.629 235.865C394.609 235.867 394.579 235.87 394.538 235.87V237.87ZM396.528 235.88V227.42H394.528V235.88H396.528ZM396.528 227.42C396.528 226.936 396.406 226.389 395.988 225.97C395.569 225.552 395.022 225.43 394.538 225.43V227.43C394.579 227.43 394.609 227.433 394.629 227.435C394.648 227.438 394.656 227.441 394.655 227.441C394.653 227.44 394.643 227.436 394.627 227.427C394.619 227.422 394.61 227.416 394.601 227.409C394.592 227.402 394.582 227.394 394.574 227.385C394.565 227.376 394.556 227.366 394.549 227.357C394.542 227.348 394.536 227.339 394.531 227.331C394.522 227.315 394.518 227.305 394.518 227.303C394.517 227.302 394.52 227.31 394.523 227.329C394.526 227.349 394.528 227.379 394.528 227.42H396.528ZM394.538 225.43H379.508V227.43H394.538V225.43ZM378.508 226.43V236.87H380.508V226.43H378.508ZM379.508 213.3H392.738V211.3H379.508V213.3ZM392.738 213.3C393.222 213.3 393.769 213.178 394.188 212.76C394.606 212.341 394.728 211.794 394.728 211.31H392.728C392.728 211.351 392.726 211.381 392.723 211.401C392.72 211.42 392.717 211.428 392.718 211.427C392.718 211.425 392.722 211.415 392.731 211.399C392.736 211.391 392.742 211.382 392.749 211.373C392.757 211.364 392.765 211.354 392.774 211.345C392.782 211.336 392.792 211.328 392.801 211.321C392.81 211.314 392.819 211.308 392.827 211.303C392.843 211.294 392.853 211.29 392.855 211.289C392.856 211.289 392.848 211.292 392.829 211.295C392.809 211.297 392.779 211.3 392.738 211.3V213.3ZM394.728 211.31V204.02H392.728V211.31H394.728ZM394.728 204.02C394.728 203.536 394.606 202.989 394.188 202.57C393.769 202.152 393.222 202.03 392.738 202.03V204.03C392.779 204.03 392.809 204.033 392.829 204.035C392.848 204.038 392.856 204.041 392.855 204.041C392.853 204.04 392.843 204.036 392.827 204.027C392.819 204.022 392.81 204.016 392.801 204.009C392.792 204.002 392.782 203.994 392.774 203.985C392.765 203.976 392.757 203.966 392.749 203.957C392.742 203.948 392.736 203.939 392.731 203.931C392.722 203.915 392.718 203.905 392.718 203.903C392.717 203.902 392.72 203.91 392.723 203.929C392.726 203.949 392.728 203.979 392.728 204.02H394.728ZM392.738 202.03H379.508V204.03H392.738V202.03ZM378.508 203.03V212.3H380.508V203.03H378.508ZM417.421 248.12L416.462 247.836L416.33 248.281L416.585 248.669L417.421 248.12ZM434.971 188.9V187.9H434.224L434.012 188.616L434.971 188.9ZM458.371 188.9L459.329 188.616L459.117 187.9H458.371V188.9ZM475.921 248.12L476.757 248.669L477.011 248.281L476.879 247.836L475.921 248.12ZM474.031 251V252H474.57L474.867 251.549L474.031 251ZM460.891 251L459.927 251.266L460.13 252H460.891V251ZM457.831 239.93L458.794 239.664L458.592 238.93H457.831V239.93ZM435.511 239.93V238.93H434.75L434.547 239.664L435.511 239.93ZM432.451 251V252H433.212L433.414 251.266L432.451 251ZM419.311 251L418.475 251.549L418.771 252H419.311V251ZM439.651 225.8L438.689 225.526L438.326 226.8H439.651V225.8ZM453.691 225.8V226.8H455.015L454.652 225.526L453.691 225.8ZM447.211 203.03L448.172 202.756L447.966 202.03H447.211V203.03ZM446.131 203.03V202.03H445.376L445.169 202.756L446.131 203.03ZM418.379 248.404L435.929 189.184L434.012 188.616L416.462 247.836L418.379 248.404ZM434.971 189.9H458.371V187.9H434.971V189.9ZM457.412 189.184L474.962 248.404L476.879 247.836L459.329 188.616L457.412 189.184ZM475.085 247.571L473.195 250.451L474.867 251.549L476.757 248.669L475.085 247.571ZM474.031 250H460.891V252H474.031V250ZM461.854 250.734L458.794 239.664L456.867 240.196L459.927 251.266L461.854 250.734ZM457.831 238.93H435.511V240.93H457.831V238.93ZM434.547 239.664L431.487 250.734L433.414 251.266L436.474 240.196L434.547 239.664ZM432.451 250H419.311V252H432.451V250ZM420.147 250.451L418.257 247.571L416.585 248.669L418.475 251.549L420.147 250.451ZM439.651 226.8H453.691V224.8H439.651V226.8ZM454.652 225.526L448.172 202.756L446.249 203.304L452.729 226.074L454.652 225.526ZM447.211 202.03H446.131V204.03H447.211V202.03ZM445.169 202.756L438.689 225.526L440.612 226.074L447.092 203.304L445.169 202.756ZM484.434 251H483.434V252H484.434V251ZM484.434 188.9V187.9H483.434V188.9H484.434ZM500.094 188.9H501.094V187.9H500.094V188.9ZM500.094 209.78H499.094V212.393L500.839 210.448L500.094 209.78ZM518.814 188.9V187.9H518.368L518.07 188.232L518.814 188.9ZM533.574 188.9L534.479 188.474L534.209 187.9H533.574V188.9ZM535.014 191.96L535.759 192.627L536.201 192.134L535.919 191.534L535.014 191.96ZM514.854 214.46L514.109 213.793L513.59 214.372L514.024 215.018L514.854 214.46ZM537.354 247.94L538.259 248.366L538.5 247.853L538.184 247.382L537.354 247.94ZM535.914 251V252H536.549L536.819 251.426L535.914 251ZM521.514 251L520.681 251.553L520.978 252H521.514V251ZM504.774 225.8L505.607 225.247L504.918 224.209L504.054 225.106L504.774 225.8ZM500.094 230.66L499.374 229.966L499.094 230.257V230.66H500.094ZM500.094 251V252H501.094V251H500.094ZM485.434 251V188.9H483.434V251H485.434ZM484.434 189.9H500.094V187.9H484.434V189.9ZM499.094 188.9V209.78H501.094V188.9H499.094ZM500.839 210.448L519.559 189.568L518.07 188.232L499.349 209.112L500.839 210.448ZM518.814 189.9H533.574V187.9H518.814V189.9ZM532.669 189.326L534.109 192.386L535.919 191.534L534.479 188.474L532.669 189.326ZM534.269 191.293L514.109 213.793L515.599 215.127L535.759 192.627L534.269 191.293ZM514.024 215.018L536.524 248.498L538.184 247.382L515.684 213.902L514.024 215.018ZM536.449 247.514L535.009 250.574L536.819 251.426L538.259 248.366L536.449 247.514ZM535.914 250H521.514V252H535.914V250ZM522.347 250.447L505.607 225.247L503.941 226.353L520.681 251.553L522.347 250.447ZM504.054 225.106L499.374 229.966L500.814 231.354L505.494 226.494L504.054 225.106ZM499.094 230.66V251H501.094V230.66H499.094ZM500.094 250H484.434V252H500.094V250ZM541.976 203.03H540.976V204.03H541.976V203.03ZM541.976 188.9V187.9H540.976V188.9H541.976ZM593.636 188.9H594.636V187.9H593.636V188.9ZM593.636 203.03V204.03H594.636V203.03H593.636ZM575.636 203.03V202.03H574.636V203.03H575.636ZM575.636 251V252H576.636V251H575.636ZM559.976 251H558.976V252H559.976V251ZM559.976 203.03H560.976V202.03H559.976V203.03ZM542.976 203.03V188.9H540.976V203.03H542.976ZM541.976 189.9H593.636V187.9H541.976V189.9ZM592.636 188.9V203.03H594.636V188.9H592.636ZM593.636 202.03H575.636V204.03H593.636V202.03ZM574.636 203.03V251H576.636V203.03H574.636ZM575.636 250H559.976V252H575.636V250ZM560.976 251V203.03H558.976V251H560.976ZM559.976 202.03H541.976V204.03H559.976V202.03ZM602.823 251H601.823V252H602.823V251ZM602.823 188.9V187.9H601.823V188.9H602.823ZM618.483 188.9H619.483V187.9H618.483V188.9ZM618.483 251V252H619.483V251H618.483ZM603.823 251V188.9H601.823V251H603.823ZM602.823 189.9H618.483V187.9H602.823V189.9ZM617.483 188.9V251H619.483V188.9H617.483ZM618.483 250H602.823V252H618.483V250ZM654.151 251H653.151V252H654.151V251ZM654.151 188.9V187.9H653.151V188.9H654.151ZM671.071 188.9L671.939 188.403L671.651 187.9H671.071V188.9ZM691.681 224.9L690.813 225.397L692.681 228.659V224.9H691.681ZM691.681 188.9V187.9H690.681V188.9H691.681ZM707.341 188.9H708.341V187.9H707.341V188.9ZM707.341 251V252H708.341V251H707.341ZM690.511 251L689.644 251.498L689.932 252H690.511V251ZM669.811 215L670.678 214.502L668.811 211.255V215H669.811ZM669.811 251V252H670.811V251H669.811ZM655.151 251V188.9H653.151V251H655.151ZM654.151 189.9H671.071V187.9H654.151V189.9ZM670.203 189.397L690.813 225.397L692.549 224.403L671.939 188.403L670.203 189.397ZM692.681 224.9V188.9H690.681V224.9H692.681ZM691.681 189.9H707.341V187.9H691.681V189.9ZM706.341 188.9V251H708.341V188.9H706.341ZM707.341 250H690.511V252H707.341V250ZM691.378 250.502L670.678 214.502L668.944 215.498L689.644 251.498L691.378 250.502ZM668.811 215V251H670.811V215H668.811ZM669.811 250H654.151V252H669.811V250ZM721.387 251H720.387V252H721.387V251ZM721.387 188.9V187.9H720.387V188.9H721.387ZM764.857 188.9H765.857V187.9H764.857V188.9ZM764.857 203.03V204.03H765.857V203.03H764.857ZM737.047 203.03V202.03H736.047V203.03H737.047ZM737.047 212.3H736.047V213.3H737.047V212.3ZM762.157 212.3H763.157V211.3H762.157V212.3ZM762.157 226.43V227.43H763.157V226.43H762.157ZM737.047 226.43V225.43H736.047V226.43H737.047ZM737.047 236.87H736.047V237.87H737.047V236.87ZM764.857 236.87H765.857V235.87H764.857V236.87ZM764.857 251V252H765.857V251H764.857ZM722.387 251V188.9H720.387V251H722.387ZM721.387 189.9H764.857V187.9H721.387V189.9ZM763.857 188.9V203.03H765.857V188.9H763.857ZM764.857 202.03H737.047V204.03H764.857V202.03ZM736.047 203.03V212.3H738.047V203.03H736.047ZM737.047 213.3H762.157V211.3H737.047V213.3ZM761.157 212.3V226.43H763.157V212.3H761.157ZM762.157 225.43H737.047V227.43H762.157V225.43ZM736.047 226.43V236.87H738.047V226.43H736.047ZM737.047 237.87H764.857V235.87H737.047V237.87ZM763.857 236.87V251H765.857V236.87H763.857ZM764.857 250H721.387V252H764.857V250ZM816.727 188.9L817.336 188.107L817.067 187.9H816.727V188.9ZM823.747 194.3H824.747V193.808L824.356 193.507L823.747 194.3ZM823.747 203.03V204.03H824.747V203.03H823.747ZM809.887 236.87V237.87H810.887V236.87H809.887ZM809.887 226.43H810.887V225.43H809.887V226.43ZM799.717 226.43H798.717V227.43H799.717V226.43ZM799.717 212.3V211.3H798.717V212.3H799.717ZM825.547 212.3H826.547V211.3H825.547V212.3ZM825.547 251V252H826.547V251H825.547ZM776.507 235.16V204.74H774.507V235.16H776.507ZM776.507 204.74C776.507 199.614 777.787 195.953 780.174 193.567C782.56 191.181 786.221 189.9 791.347 189.9V187.9C785.913 187.9 781.653 189.259 778.76 192.153C775.866 195.047 774.507 199.306 774.507 204.74H776.507ZM791.347 189.9H816.727V187.9H791.347V189.9ZM816.117 189.693L823.137 195.093L824.356 193.507L817.336 188.107L816.117 189.693ZM822.747 194.3V203.03H824.747V194.3H822.747ZM823.747 202.03H792.157V204.03H823.747V202.03ZM792.157 202.03C791.673 202.03 791.126 202.152 790.707 202.57C790.288 202.989 790.167 203.536 790.167 204.02H792.167C792.167 203.979 792.169 203.949 792.172 203.929C792.175 203.91 792.178 203.902 792.177 203.903C792.177 203.905 792.173 203.915 792.163 203.931C792.159 203.939 792.153 203.948 792.146 203.957C792.138 203.966 792.13 203.976 792.121 203.985C792.112 203.994 792.103 204.002 792.094 204.009C792.085 204.016 792.076 204.022 792.068 204.027C792.052 204.036 792.041 204.04 792.04 204.041C792.039 204.041 792.046 204.038 792.066 204.035C792.086 204.033 792.115 204.03 792.157 204.03V202.03ZM790.167 204.02V235.88H792.167V204.02H790.167ZM790.167 235.88C790.167 236.364 790.288 236.911 790.707 237.33C791.126 237.748 791.673 237.87 792.157 237.87V235.87C792.115 235.87 792.086 235.867 792.066 235.865C792.046 235.862 792.039 235.859 792.04 235.859C792.041 235.86 792.052 235.864 792.068 235.873C792.076 235.878 792.085 235.884 792.094 235.891C792.103 235.898 792.112 235.906 792.121 235.915C792.13 235.924 792.138 235.934 792.146 235.943C792.153 235.952 792.159 235.961 792.163 235.969C792.173 235.985 792.177 235.995 792.177 235.997C792.178 235.998 792.175 235.99 792.172 235.971C792.169 235.951 792.167 235.921 792.167 235.88H790.167ZM792.157 237.87H809.887V235.87H792.157V237.87ZM810.887 236.87V226.43H808.887V236.87H810.887ZM809.887 225.43H799.717V227.43H809.887V225.43ZM800.717 226.43V212.3H798.717V226.43H800.717ZM799.717 213.3H825.547V211.3H799.717V213.3ZM824.547 212.3V251H826.547V212.3H824.547ZM825.547 250H791.347V252H825.547V250ZM791.347 250C786.221 250 782.56 248.719 780.174 246.333C777.787 243.947 776.507 240.286 776.507 235.16H774.507C774.507 240.594 775.866 244.853 778.76 247.747C781.653 250.641 785.913 252 791.347 252V250ZM837.754 251H836.754V252H837.754V251ZM837.754 188.9V187.9H836.754V188.9H837.754ZM881.224 188.9H882.224V187.9H881.224V188.9ZM881.224 203.03V204.03H882.224V203.03H881.224ZM853.414 203.03V202.03H852.414V203.03H853.414ZM853.414 212.3H852.414V213.3H853.414V212.3ZM878.524 212.3H879.524V211.3H878.524V212.3ZM878.524 226.43V227.43H879.524V226.43H878.524ZM853.414 226.43V225.43H852.414V226.43H853.414ZM853.414 236.87H852.414V237.87H853.414V236.87ZM881.224 236.87H882.224V235.87H881.224V236.87ZM881.224 251V252H882.224V251H881.224ZM838.754 251V188.9H836.754V251H838.754ZM837.754 189.9H881.224V187.9H837.754V189.9ZM880.224 188.9V203.03H882.224V188.9H880.224ZM881.224 202.03H853.414V204.03H881.224V202.03ZM852.414 203.03V212.3H854.414V203.03H852.414ZM853.414 213.3H878.524V211.3H853.414V213.3ZM877.524 212.3V226.43H879.524V212.3H877.524ZM878.524 225.43H853.414V227.43H878.524V225.43ZM852.414 226.43V236.87H854.414V226.43H852.414ZM853.414 237.87H881.224V235.87H853.414V237.87ZM880.224 236.87V251H882.224V236.87H880.224ZM881.224 250H837.754V252H881.224V250ZM892.774 251H891.774V252H892.774V251ZM892.774 188.9V187.9H891.774V188.9H892.774ZM931.654 229.58L931.242 228.669L930.285 229.102L930.764 230.036L931.654 229.58ZM941.014 247.85L941.882 248.346L942.151 247.876L941.904 247.394L941.014 247.85ZM939.214 251V252H939.794L940.082 251.496L939.214 251ZM925.714 251L924.823 251.455L925.102 252H925.714V251ZM915.454 230.93L916.344 230.475L916.066 229.93H915.454V230.93ZM908.434 230.93V229.93H907.434V230.93H908.434ZM908.434 251V252H909.434V251H908.434ZM908.434 216.8H907.434V217.8H908.434V216.8ZM908.434 203.03V202.03H907.434V203.03H908.434ZM893.774 251V188.9H891.774V251H893.774ZM892.774 189.9H923.374V187.9H892.774V189.9ZM923.374 189.9C928.5 189.9 932.16 191.181 934.547 193.567C936.933 195.953 938.214 199.614 938.214 204.74H940.214C940.214 199.306 938.855 195.047 935.961 192.153C933.067 189.259 928.808 187.9 923.374 187.9V189.9ZM938.214 204.74V215.18H940.214V204.74H938.214ZM938.214 215.18C938.214 222.259 935.804 226.605 931.242 228.669L932.066 230.491C937.584 227.995 940.214 222.741 940.214 215.18H938.214ZM930.764 230.036L940.124 248.306L941.904 247.394L932.544 229.124L930.764 230.036ZM940.146 247.354L938.346 250.504L940.082 251.496L941.882 248.346L940.146 247.354ZM939.214 250H925.714V252H939.214V250ZM926.604 250.545L916.344 230.475L914.564 231.385L924.823 251.455L926.604 250.545ZM915.454 229.93H908.434V231.93H915.454V229.93ZM907.434 230.93V251H909.434V230.93H907.434ZM908.434 250H892.774V252H908.434V250ZM908.434 217.8H922.564V215.8H908.434V217.8ZM922.564 217.8C923.048 217.8 923.595 217.678 924.013 217.26C924.432 216.841 924.554 216.294 924.554 215.81H922.554C922.554 215.851 922.551 215.881 922.548 215.901C922.546 215.92 922.543 215.928 922.543 215.927C922.544 215.925 922.548 215.915 922.557 215.899C922.562 215.891 922.568 215.882 922.575 215.873C922.582 215.864 922.59 215.854 922.599 215.845C922.608 215.836 922.617 215.828 922.627 215.821C922.636 215.814 922.645 215.808 922.653 215.803C922.669 215.794 922.679 215.79 922.681 215.789C922.682 215.789 922.674 215.792 922.655 215.795C922.635 215.797 922.605 215.8 922.564 215.8V217.8ZM924.554 215.81V204.02H922.554V215.81H924.554ZM924.554 204.02C924.554 203.536 924.432 202.989 924.013 202.57C923.595 202.152 923.048 202.03 922.564 202.03V204.03C922.605 204.03 922.635 204.033 922.655 204.035C922.674 204.038 922.682 204.041 922.681 204.041C922.679 204.04 922.669 204.036 922.653 204.027C922.645 204.022 922.636 204.016 922.627 204.009C922.617 204.002 922.608 203.994 922.599 203.985C922.59 203.976 922.582 203.966 922.575 203.957C922.568 203.948 922.562 203.939 922.557 203.931C922.548 203.915 922.544 203.905 922.543 203.903C922.543 203.902 922.546 203.91 922.548 203.929C922.551 203.949 922.554 203.979 922.554 204.02H924.554ZM922.564 202.03H908.434V204.03H922.564V202.03ZM907.434 203.03V216.8H909.434V203.03H907.434ZM951.485 251H950.485V252H951.485V251ZM951.485 188.9V187.9H950.485V188.9H951.485ZM967.145 188.9H968.145V187.9H967.145V188.9ZM967.145 251V252H968.145V251H967.145ZM952.485 251V188.9H950.485V251H952.485ZM951.485 189.9H967.145V187.9H951.485V189.9ZM966.145 188.9V251H968.145V188.9H966.145ZM967.145 250H951.485V252H967.145V250ZM324.385 351H323.385V352H324.385V351ZM324.385 288.9V287.9H323.385V288.9H324.385ZM340.045 336.87H339.045V337.87H340.045V336.87ZM340.045 303.03V302.03H339.045V303.03H340.045ZM325.385 351V288.9H323.385V351H325.385ZM324.385 289.9H347.605V287.9H324.385V289.9ZM347.605 289.9C356.391 289.9 362.797 292.096 367.013 296.312C371.229 300.528 373.425 306.934 373.425 315.72H375.425C375.425 306.626 373.151 299.622 368.427 294.898C363.704 290.174 356.699 287.9 347.605 287.9V289.9ZM373.425 315.72V324.18H375.425V315.72H373.425ZM373.425 324.18C373.425 332.966 371.229 339.372 367.013 343.588C362.797 347.804 356.391 350 347.605 350V352C356.699 352 363.704 349.726 368.427 345.002C373.151 340.278 375.425 333.274 375.425 324.18H373.425ZM347.605 350H324.385V352H347.605V350ZM340.045 337.87H348.505V335.87H340.045V337.87ZM348.505 337.87C352.082 337.87 354.947 336.967 356.91 334.987C358.872 333.008 359.765 330.122 359.765 326.52H357.765C357.765 329.818 356.948 332.107 355.49 333.578C354.033 335.048 351.769 335.87 348.505 335.87V337.87ZM359.765 326.52V313.38H357.765V326.52H359.765ZM359.765 313.38C359.765 309.778 358.872 306.892 356.91 304.913C354.947 302.933 352.082 302.03 348.505 302.03V304.03C351.769 304.03 354.033 304.852 355.49 306.322C356.948 307.793 357.765 310.082 357.765 313.38H359.765ZM348.505 302.03H340.045V304.03H348.505V302.03ZM339.045 303.03V336.87H341.045V303.03H339.045ZM386.7 351H385.7V352H386.7V351ZM386.7 288.9V287.9H385.7V288.9H386.7ZM402.36 288.9H403.36V287.9H402.36V288.9ZM402.36 351V352H403.36V351H402.36ZM387.7 351V288.9H385.7V351H387.7ZM386.7 289.9H402.36V287.9H386.7V289.9ZM401.36 288.9V351H403.36V288.9H401.36ZM402.36 350H386.7V352H402.36V350ZM438.028 351H437.028V352H438.028V351ZM438.028 288.9V287.9H437.028V288.9H438.028ZM453.688 332.73V331.73H452.688V332.73H453.688ZM453.688 351V352H454.688V351H453.688ZM453.688 318.6H452.688V319.6H453.688V318.6ZM453.688 303.03V302.03H452.688V303.03H453.688ZM439.028 351V288.9H437.028V351H439.028ZM438.028 289.9H468.628V287.9H438.028V289.9ZM468.628 289.9C473.754 289.9 477.414 291.181 479.801 293.567C482.187 295.953 483.468 299.614 483.468 304.74H485.468C485.468 299.306 484.109 295.047 481.215 292.153C478.321 289.259 474.062 287.9 468.628 287.9V289.9ZM483.468 304.74V316.98H485.468V304.74H483.468ZM483.468 316.98C483.468 322.074 482.188 325.712 479.803 328.083C477.417 330.456 473.755 331.73 468.628 331.73V333.73C474.061 333.73 478.319 332.379 481.213 329.502C484.108 326.623 485.468 322.386 485.468 316.98H483.468ZM468.628 331.73H453.688V333.73H468.628V331.73ZM452.688 332.73V351H454.688V332.73H452.688ZM453.688 350H438.028V352H453.688V350ZM453.688 319.6H467.818V317.6H453.688V319.6ZM467.818 319.6C468.302 319.6 468.849 319.478 469.267 319.06C469.686 318.641 469.808 318.094 469.808 317.61H467.808C467.808 317.651 467.805 317.681 467.802 317.701C467.8 317.72 467.797 317.728 467.797 317.727C467.798 317.725 467.801 317.715 467.811 317.699C467.816 317.691 467.822 317.682 467.829 317.673C467.836 317.664 467.844 317.654 467.853 317.645C467.862 317.636 467.871 317.628 467.881 317.621C467.89 317.614 467.899 317.608 467.907 317.603C467.923 317.594 467.933 317.59 467.935 317.589C467.936 317.589 467.928 317.592 467.908 317.595C467.889 317.597 467.859 317.6 467.818 317.6V319.6ZM469.808 317.61V304.02H467.808V317.61H469.808ZM469.808 304.02C469.808 303.536 469.686 302.989 469.267 302.57C468.849 302.152 468.302 302.03 467.818 302.03V304.03C467.859 304.03 467.889 304.033 467.908 304.035C467.928 304.038 467.936 304.041 467.935 304.041C467.933 304.04 467.923 304.036 467.907 304.027C467.899 304.022 467.89 304.016 467.881 304.009C467.871 304.002 467.862 303.994 467.853 303.985C467.844 303.976 467.836 303.966 467.829 303.957C467.822 303.948 467.816 303.939 467.811 303.931C467.801 303.915 467.798 303.905 467.797 303.903C467.797 303.902 467.8 303.91 467.802 303.929C467.805 303.949 467.808 303.979 467.808 304.02H469.808ZM467.818 302.03H453.688V304.03H467.818V302.03ZM452.688 303.03V318.6H454.688V303.03H452.688ZM495.772 351H494.772V352H495.772V351ZM495.772 288.9V287.9H494.772V288.9H495.772ZM539.242 288.9H540.242V287.9H539.242V288.9ZM539.242 303.03V304.03H540.242V303.03H539.242ZM511.432 303.03V302.03H510.432V303.03H511.432ZM511.432 312.3H510.432V313.3H511.432V312.3ZM536.542 312.3H537.542V311.3H536.542V312.3ZM536.542 326.43V327.43H537.542V326.43H536.542ZM511.432 326.43V325.43H510.432V326.43H511.432ZM511.432 336.87H510.432V337.87H511.432V336.87ZM539.242 336.87H540.242V335.87H539.242V336.87ZM539.242 351V352H540.242V351H539.242ZM496.772 351V288.9H494.772V351H496.772ZM495.772 289.9H539.242V287.9H495.772V289.9ZM538.242 288.9V303.03H540.242V288.9H538.242ZM539.242 302.03H511.432V304.03H539.242V302.03ZM510.432 303.03V312.3H512.432V303.03H510.432ZM511.432 313.3H536.542V311.3H511.432V313.3ZM535.542 312.3V326.43H537.542V312.3H535.542ZM536.542 325.43H511.432V327.43H536.542V325.43ZM510.432 326.43V336.87H512.432V326.43H510.432ZM511.432 337.87H539.242V335.87H511.432V337.87ZM538.242 336.87V351H540.242V336.87H538.242ZM539.242 350H495.772V352H539.242V350ZM550.792 351H549.792V352H550.792V351ZM550.792 288.9V287.9H549.792V288.9H550.792ZM589.672 329.58L589.259 328.669L588.303 329.102L588.781 330.036L589.672 329.58ZM599.031 347.85L599.9 348.346L600.168 347.876L599.922 347.394L599.031 347.85ZM597.232 351V352H597.812L598.1 351.496L597.232 351ZM583.732 351L582.841 351.455L583.12 352H583.732V351ZM573.471 330.93L574.362 330.475L574.083 329.93H573.471V330.93ZM566.451 330.93V329.93H565.451V330.93H566.451ZM566.451 351V352H567.451V351H566.451ZM566.451 316.8H565.451V317.8H566.451V316.8ZM566.451 303.03V302.03H565.451V303.03H566.451ZM551.792 351V288.9H549.792V351H551.792ZM550.792 289.9H581.391V287.9H550.792V289.9ZM581.391 289.9C586.517 289.9 590.178 291.181 592.564 293.567C594.951 295.953 596.232 299.614 596.232 304.74H598.232C598.232 299.306 596.872 295.047 593.979 292.153C591.085 289.259 586.826 287.9 581.391 287.9V289.9ZM596.232 304.74V315.18H598.232V304.74H596.232ZM596.232 315.18C596.232 322.259 593.821 326.605 589.259 328.669L590.084 330.491C595.602 327.995 598.232 322.741 598.232 315.18H596.232ZM588.781 330.036L598.141 348.306L599.922 347.394L590.561 329.124L588.781 330.036ZM598.163 347.354L596.363 350.504L598.1 351.496L599.9 348.346L598.163 347.354ZM597.232 350H583.732V352H597.232V350ZM584.622 350.545L574.362 330.475L572.581 331.385L582.841 351.455L584.622 350.545ZM573.471 329.93H566.451V331.93H573.471V329.93ZM565.451 330.93V351H567.451V330.93H565.451ZM566.451 350H550.792V352H566.451V350ZM566.451 317.8H580.581V315.8H566.451V317.8ZM580.581 317.8C581.066 317.8 581.612 317.678 582.031 317.26C582.45 316.841 582.571 316.294 582.571 315.81H580.571C580.571 315.851 580.569 315.881 580.566 315.901C580.563 315.92 580.56 315.928 580.561 315.927C580.561 315.925 580.565 315.915 580.575 315.899C580.58 315.891 580.585 315.882 580.593 315.873C580.6 315.864 580.608 315.854 580.617 315.845C580.626 315.836 580.635 315.828 580.644 315.821C580.654 315.814 580.662 315.808 580.67 315.803C580.686 315.794 580.697 315.79 580.698 315.789C580.7 315.789 580.692 315.792 580.672 315.795C580.652 315.797 580.623 315.8 580.581 315.8V317.8ZM582.571 315.81V304.02H580.571V315.81H582.571ZM582.571 304.02C582.571 303.536 582.45 302.989 582.031 302.57C581.612 302.152 581.066 302.03 580.581 302.03V304.03C580.623 304.03 580.652 304.033 580.672 304.035C580.692 304.038 580.7 304.041 580.698 304.041C580.697 304.04 580.686 304.036 580.67 304.027C580.662 304.022 580.654 304.016 580.644 304.009C580.635 304.002 580.626 303.994 580.617 303.985C580.608 303.976 580.6 303.966 580.593 303.957C580.585 303.948 580.58 303.939 580.575 303.931C580.565 303.915 580.561 303.905 580.561 303.903C580.56 303.902 580.563 303.91 580.566 303.929C580.569 303.949 580.571 303.979 580.571 304.02H582.571ZM580.581 302.03H566.451V304.03H580.581V302.03ZM565.451 303.03V316.8H567.451V303.03H565.451ZM609.502 351H608.502V352H609.502V351ZM609.502 288.9V287.9H608.502V288.9H609.502ZM653.242 314.91L652.474 314.27V314.27L653.242 314.91ZM650.092 318.69L649.324 318.05L648.684 318.818L649.452 319.458L650.092 318.69ZM653.872 321.84L653.232 322.608L653.239 322.614L653.872 321.84ZM625.162 336.87H624.162V337.87H625.162V336.87ZM625.162 326.43V325.43H624.162V326.43H625.162ZM625.162 312.3H624.162V313.3H625.162V312.3ZM625.162 303.03V302.03H624.162V303.03H625.162ZM610.502 351V288.9H608.502V351H610.502ZM609.502 289.9H639.202V287.9H609.502V289.9ZM639.202 289.9C644.328 289.9 647.989 291.181 650.375 293.567C652.762 295.953 654.042 299.614 654.042 304.74H656.042C656.042 299.306 654.683 295.047 651.79 292.153C648.896 289.259 644.637 287.9 639.202 287.9V289.9ZM654.042 304.74V309.69H656.042V304.74H654.042ZM654.042 309.69C654.042 311.518 653.511 313.026 652.474 314.27L654.011 315.55C655.374 313.914 656.042 311.942 656.042 309.69H654.042ZM652.474 314.27L649.324 318.05L650.861 319.33L654.011 315.55L652.474 314.27ZM649.452 319.458L653.232 322.608L654.513 321.072L650.733 317.922L649.452 319.458ZM653.239 322.614C654.932 323.999 655.842 326.08 655.842 329.04H657.842C657.842 325.64 656.773 322.921 654.506 321.066L653.239 322.614ZM655.842 329.04V335.16H657.842V329.04H655.842ZM655.842 335.16C655.842 340.286 654.562 343.947 652.175 346.333C649.789 348.719 646.128 350 641.002 350V352C646.437 352 650.696 350.641 653.59 347.747C656.483 344.853 657.842 340.594 657.842 335.16H655.842ZM641.002 350H609.502V352H641.002V350ZM625.162 337.87H640.192V335.87H625.162V337.87ZM640.192 337.87C640.677 337.87 641.223 337.748 641.642 337.33C642.061 336.911 642.182 336.364 642.182 335.88H640.182C640.182 335.921 640.18 335.951 640.177 335.971C640.174 335.99 640.171 335.998 640.172 335.997C640.172 335.995 640.176 335.985 640.186 335.969C640.19 335.961 640.196 335.952 640.204 335.943C640.211 335.934 640.219 335.924 640.228 335.915C640.237 335.906 640.246 335.898 640.255 335.891C640.265 335.884 640.273 335.878 640.281 335.873C640.297 335.864 640.308 335.86 640.309 335.859C640.311 335.859 640.303 335.862 640.283 335.865C640.263 335.867 640.234 335.87 640.192 335.87V337.87ZM642.182 335.88V327.42H640.182V335.88H642.182ZM642.182 327.42C642.182 326.936 642.061 326.389 641.642 325.97C641.223 325.552 640.677 325.43 640.192 325.43V327.43C640.234 327.43 640.263 327.433 640.283 327.435C640.303 327.438 640.311 327.441 640.309 327.441C640.308 327.44 640.297 327.436 640.281 327.427C640.273 327.422 640.265 327.416 640.255 327.409C640.246 327.402 640.237 327.394 640.228 327.385C640.219 327.376 640.211 327.366 640.204 327.357C640.196 327.348 640.19 327.339 640.186 327.331C640.176 327.315 640.172 327.305 640.172 327.303C640.171 327.302 640.174 327.31 640.177 327.329C640.18 327.349 640.182 327.379 640.182 327.42H642.182ZM640.192 325.43H625.162V327.43H640.192V325.43ZM624.162 326.43V336.87H626.162V326.43H624.162ZM625.162 313.3H638.392V311.3H625.162V313.3ZM638.392 313.3C638.877 313.3 639.423 313.178 639.842 312.76C640.261 312.341 640.382 311.794 640.382 311.31H638.382C638.382 311.351 638.38 311.381 638.377 311.401C638.374 311.42 638.371 311.428 638.372 311.427C638.372 311.425 638.376 311.415 638.386 311.399C638.39 311.391 638.396 311.382 638.404 311.373C638.411 311.364 638.419 311.354 638.428 311.345C638.437 311.336 638.446 311.328 638.455 311.321C638.464 311.314 638.473 311.308 638.481 311.303C638.497 311.294 638.508 311.29 638.509 311.289C638.511 311.289 638.503 311.292 638.483 311.295C638.463 311.297 638.434 311.3 638.392 311.3V313.3ZM640.382 311.31V304.02H638.382V311.31H640.382ZM640.382 304.02C640.382 303.536 640.261 302.989 639.842 302.57C639.423 302.152 638.877 302.03 638.392 302.03V304.03C638.434 304.03 638.463 304.033 638.483 304.035C638.503 304.038 638.511 304.041 638.509 304.041C638.508 304.04 638.497 304.036 638.481 304.027C638.473 304.022 638.464 304.016 638.455 304.009C638.446 304.002 638.437 303.994 638.428 303.985C638.419 303.976 638.411 303.966 638.404 303.957C638.396 303.948 638.39 303.939 638.386 303.931C638.376 303.915 638.372 303.905 638.372 303.903C638.371 303.902 638.374 303.91 638.377 303.929C638.38 303.949 638.382 303.979 638.382 304.02H640.382ZM638.392 302.03H625.162V304.03H638.392V302.03ZM624.162 303.03V312.3H626.162V303.03H624.162ZM663.075 348.12L662.116 347.836L661.984 348.281L662.239 348.669L663.075 348.12ZM680.625 288.9V287.9H679.878L679.666 288.616L680.625 288.9ZM704.025 288.9L704.984 288.616L704.772 287.9H704.025V288.9ZM721.575 348.12L722.411 348.669L722.666 348.281L722.534 347.836L721.575 348.12ZM719.685 351V352H720.225L720.521 351.549L719.685 351ZM706.545 351L705.581 351.266L705.784 352H706.545V351ZM703.485 339.93L704.449 339.664L704.246 338.93H703.485V339.93ZM681.165 339.93V338.93H680.404L680.201 339.664L681.165 339.93ZM678.105 351V352H678.866L679.069 351.266L678.105 351ZM664.965 351L664.129 351.549L664.425 352H664.965V351ZM685.305 325.8L684.343 325.526L683.981 326.8H685.305V325.8ZM699.345 325.8V326.8H700.669L700.307 325.526L699.345 325.8ZM692.865 303.03L693.827 302.756L693.62 302.03H692.865V303.03ZM691.785 303.03V302.03H691.03L690.823 302.756L691.785 303.03ZM664.034 348.404L681.584 289.184L679.666 288.616L662.116 347.836L664.034 348.404ZM680.625 289.9H704.025V287.9H680.625V289.9ZM703.066 289.184L720.616 348.404L722.534 347.836L704.984 288.616L703.066 289.184ZM720.739 347.571L718.849 350.451L720.521 351.549L722.411 348.669L720.739 347.571ZM719.685 350H706.545V352H719.685V350ZM707.509 350.734L704.449 339.664L702.521 340.196L705.581 351.266L707.509 350.734ZM703.485 338.93H681.165V340.93H703.485V338.93ZM680.201 339.664L677.141 350.734L679.069 351.266L682.129 340.196L680.201 339.664ZM678.105 350H664.965V352H678.105V350ZM665.801 350.451L663.911 347.571L662.239 348.669L664.129 351.549L665.801 350.451ZM685.305 326.8H699.345V324.8H685.305V326.8ZM700.307 325.526L693.827 302.756L691.903 303.304L698.383 326.074L700.307 325.526ZM692.865 302.03H691.785V304.03H692.865V302.03ZM690.823 302.756L684.343 325.526L686.267 326.074L692.747 303.304L690.823 302.756ZM720.746 303.03H719.746V304.03H720.746V303.03ZM720.746 288.9V287.9H719.746V288.9H720.746ZM772.406 288.9H773.406V287.9H772.406V288.9ZM772.406 303.03V304.03H773.406V303.03H772.406ZM754.406 303.03V302.03H753.406V303.03H754.406ZM754.406 351V352H755.406V351H754.406ZM738.746 351H737.746V352H738.746V351ZM738.746 303.03H739.746V302.03H738.746V303.03ZM721.746 303.03V288.9H719.746V303.03H721.746ZM720.746 289.9H772.406V287.9H720.746V289.9ZM771.406 288.9V303.03H773.406V288.9H771.406ZM772.406 302.03H754.406V304.03H772.406V302.03ZM753.406 303.03V351H755.406V303.03H753.406ZM754.406 350H738.746V352H754.406V350ZM739.746 351V303.03H737.746V351H739.746ZM738.746 302.03H720.746V304.03H738.746V302.03ZM771.62 348.12L770.661 347.836L770.529 348.281L770.784 348.669L771.62 348.12ZM789.17 288.9V287.9H788.423L788.211 288.616L789.17 288.9ZM812.57 288.9L813.529 288.616L813.316 287.9H812.57V288.9ZM830.12 348.12L830.956 348.669L831.21 348.281L831.079 347.836L830.12 348.12ZM828.23 351V352H828.77L829.066 351.549L828.23 351ZM815.09 351L814.126 351.266L814.329 352H815.09V351ZM812.03 339.93L812.994 339.664L812.791 338.93H812.03V339.93ZM789.71 339.93V338.93H788.949L788.746 339.664L789.71 339.93ZM786.65 351V352H787.411L787.614 351.266L786.65 351ZM773.51 351L772.674 351.549L772.97 352H773.51V351ZM793.85 325.8L792.888 325.526L792.526 326.8H793.85V325.8ZM807.89 325.8V326.8H809.214L808.852 325.526L807.89 325.8ZM801.41 303.03L802.372 302.756L802.165 302.03H801.41V303.03ZM800.33 303.03V302.03H799.575L799.368 302.756L800.33 303.03ZM772.579 348.404L790.129 289.184L788.211 288.616L770.661 347.836L772.579 348.404ZM789.17 289.9H812.57V287.9H789.17V289.9ZM811.611 289.184L829.161 348.404L831.079 347.836L813.529 288.616L811.611 289.184ZM829.284 347.571L827.394 350.451L829.066 351.549L830.956 348.669L829.284 347.571ZM828.23 350H815.09V352H828.23V350ZM816.054 350.734L812.994 339.664L811.066 340.196L814.126 351.266L816.054 350.734ZM812.03 338.93H789.71V340.93H812.03V338.93ZM788.746 339.664L785.686 350.734L787.614 351.266L790.674 340.196L788.746 339.664ZM786.65 350H773.51V352H786.65V350ZM774.346 350.451L772.456 347.571L770.784 348.669L772.674 351.549L774.346 350.451ZM793.85 326.8H807.89V324.8H793.85V326.8ZM808.852 325.526L802.372 302.756L800.448 303.304L806.928 326.074L808.852 325.526ZM801.41 302.03H800.33V304.03H801.41V302.03ZM799.368 302.756L792.888 325.526L794.812 326.074L801.292 303.304L799.368 302.756ZM835.933 345.6H834.933V346.092L835.324 346.393L835.933 345.6ZM835.933 336.87V335.87H834.933V336.87H835.933ZM863.833 328.32L863.632 329.3L863.65 329.303L863.669 329.306L863.833 328.32ZM847.183 324.9L847.385 323.92L847.372 323.918L847.183 324.9ZM871.753 288.9L872.363 288.107L872.093 287.9H871.753V288.9ZM878.773 294.3H879.773V293.808L879.383 293.507L878.773 294.3ZM878.773 303.03V304.03H879.773V303.03H878.773ZM852.673 311.22L852.431 312.19L852.456 312.197L852.482 312.202L852.673 311.22ZM869.323 314.46L869.527 313.481L869.514 313.478L869.323 314.46ZM842.953 351L842.344 351.793L842.613 352H842.953V351ZM836.933 345.6V336.87H834.933V345.6H836.933ZM835.933 337.87H863.923V335.87H835.933V337.87ZM863.923 337.87C864.407 337.87 864.954 337.748 865.373 337.33C865.792 336.911 865.913 336.364 865.913 335.88H863.913C863.913 335.921 863.911 335.951 863.908 335.971C863.905 335.99 863.902 335.998 863.903 335.997C863.903 335.995 863.907 335.985 863.917 335.969C863.921 335.961 863.927 335.952 863.934 335.943C863.942 335.934 863.95 335.924 863.959 335.915C863.968 335.906 863.977 335.898 863.986 335.891C863.995 335.884 864.004 335.878 864.012 335.873C864.028 335.864 864.039 335.86 864.04 335.859C864.041 335.859 864.034 335.862 864.014 335.865C863.994 335.867 863.964 335.87 863.923 335.87V337.87ZM865.913 335.88V329.76H863.913V335.88H865.913ZM865.913 329.76C865.913 329.208 865.796 328.64 865.443 328.17C865.077 327.682 864.553 327.426 863.998 327.334L863.669 329.306C863.756 329.321 863.801 329.341 863.82 329.352C863.836 329.36 863.84 329.366 863.843 329.37C863.851 329.38 863.913 329.472 863.913 329.76H865.913ZM864.034 327.34L847.384 323.92L846.982 325.88L863.632 329.3L864.034 327.34ZM847.372 323.918C843.81 323.234 841.241 321.727 839.546 319.463C837.841 317.185 836.933 314.023 836.933 309.87H834.933C834.933 314.297 835.9 317.93 837.945 320.662C840.001 323.408 843.057 325.126 846.995 325.882L847.372 323.918ZM836.933 309.87V304.74H834.933V309.87H836.933ZM836.933 304.74C836.933 299.614 838.214 295.953 840.6 293.567C842.987 291.181 846.647 289.9 851.773 289.9V287.9C846.339 287.9 842.08 289.259 839.186 292.153C836.292 295.047 834.933 299.306 834.933 304.74H836.933ZM851.773 289.9H871.753V287.9H851.773V289.9ZM871.144 289.693L878.164 295.093L879.383 293.507L872.363 288.107L871.144 289.693ZM877.773 294.3V303.03H879.773V294.3H877.773ZM878.773 302.03H852.583V304.03H878.773V302.03ZM852.583 302.03C852.099 302.03 851.552 302.152 851.134 302.57C850.715 302.989 850.593 303.536 850.593 304.02H852.593C852.593 303.979 852.596 303.949 852.599 303.929C852.602 303.91 852.604 303.902 852.604 303.903C852.603 303.905 852.6 303.915 852.59 303.931C852.585 303.939 852.579 303.948 852.572 303.957C852.565 303.966 852.557 303.976 852.548 303.985C852.539 303.994 852.53 304.002 852.52 304.009C852.511 304.016 852.502 304.022 852.495 304.027C852.478 304.036 852.468 304.04 852.466 304.041C852.465 304.041 852.473 304.038 852.493 304.035C852.512 304.033 852.542 304.03 852.583 304.03V302.03ZM850.593 304.02V309.78H852.593V304.02H850.593ZM850.593 309.78C850.593 310.321 850.719 310.866 851.063 311.325C851.411 311.789 851.902 312.058 852.431 312.19L852.916 310.25C852.724 310.202 852.675 310.141 852.663 310.125C852.647 310.104 852.593 310.019 852.593 309.78H850.593ZM852.482 312.202L869.132 315.442L869.514 313.478L852.864 310.238L852.482 312.202ZM869.12 315.439C872.685 316.181 875.26 317.724 876.958 320.007C878.666 322.302 879.573 325.46 879.573 329.58H881.573C881.573 325.18 880.605 321.558 878.563 318.813C876.512 316.056 873.461 314.299 869.527 313.481L869.12 315.439ZM879.573 329.58V335.16H881.573V329.58H879.573ZM879.573 335.16C879.573 340.286 878.292 343.947 875.906 346.333C873.52 348.719 869.859 350 864.733 350V352C870.167 352 874.427 350.641 877.32 347.747C880.214 344.853 881.573 340.594 881.573 335.16H879.573ZM864.733 350H842.953V352H864.733V350ZM843.563 350.207L836.543 344.807L835.324 346.393L842.344 351.793L843.563 350.207ZM886.405 348.12L885.446 347.836L885.314 348.281L885.569 348.669L886.405 348.12ZM903.955 288.9V287.9H903.208L902.996 288.616L903.955 288.9ZM927.355 288.9L928.314 288.616L928.102 287.9H927.355V288.9ZM944.905 348.12L945.741 348.669L945.996 348.281L945.864 347.836L944.905 348.12ZM943.015 351V352H943.555L943.851 351.549L943.015 351ZM929.875 351L928.911 351.266L929.114 352H929.875V351ZM926.815 339.93L927.779 339.664L927.576 338.93H926.815V339.93ZM904.495 339.93V338.93H903.734L903.531 339.664L904.495 339.93ZM901.435 351V352H902.196L902.399 351.266L901.435 351ZM888.295 351L887.459 351.549L887.755 352H888.295V351ZM908.635 325.8L907.673 325.526L907.311 326.8H908.635V325.8ZM922.675 325.8V326.8H923.999L923.637 325.526L922.675 325.8ZM916.195 303.03L917.157 302.756L916.95 302.03H916.195V303.03ZM915.115 303.03V302.03H914.36L914.153 302.756L915.115 303.03ZM887.364 348.404L904.914 289.184L902.996 288.616L885.446 347.836L887.364 348.404ZM903.955 289.9H927.355V287.9H903.955V289.9ZM926.396 289.184L943.946 348.404L945.864 347.836L928.314 288.616L926.396 289.184ZM944.069 347.571L942.179 350.451L943.851 351.549L945.741 348.669L944.069 347.571ZM943.015 350H929.875V352H943.015V350ZM930.839 350.734L927.779 339.664L925.851 340.196L928.911 351.266L930.839 350.734ZM926.815 338.93H904.495V340.93H926.815V338.93ZM903.531 339.664L900.471 350.734L902.399 351.266L905.459 340.196L903.531 339.664ZM901.435 350H888.295V352H901.435V350ZM889.131 350.451L887.241 347.571L885.569 348.669L887.459 351.549L889.131 350.451ZM908.635 326.8H922.675V324.8H908.635V326.8ZM923.637 325.526L917.157 302.756L915.233 303.304L921.713 326.074L923.637 325.526ZM916.195 302.03H915.115V304.03H916.195V302.03ZM914.153 302.756L907.673 325.526L909.597 326.074L916.077 303.304L914.153 302.756ZM953.418 351H952.418V352H953.418V351ZM953.418 288.9V287.9H952.418V288.9H953.418ZM970.338 288.9L971.206 288.403L970.918 287.9H970.338V288.9ZM990.948 324.9L990.081 325.397L991.948 328.659V324.9H990.948ZM990.948 288.9V287.9H989.948V288.9H990.948ZM1006.61 288.9H1007.61V287.9H1006.61V288.9ZM1006.61 351V352H1007.61V351H1006.61ZM989.778 351L988.912 351.498L989.2 352H989.778V351ZM969.078 315L969.945 314.502L968.078 311.255V315H969.078ZM969.078 351V352H970.078V351H969.078ZM954.418 351V288.9H952.418V351H954.418ZM953.418 289.9H970.338V287.9H953.418V289.9ZM969.471 289.397L990.081 325.397L991.816 324.403L971.206 288.403L969.471 289.397ZM991.948 324.9V288.9H989.948V324.9H991.948ZM990.948 289.9H1006.61V287.9H990.948V289.9ZM1005.61 288.9V351H1007.61V288.9H1005.61ZM1006.61 350H989.778V352H1006.61V350ZM990.645 350.502L969.945 314.502L968.212 315.498L988.912 351.498L990.645 350.502ZM968.078 315V351H970.078V315H968.078ZM969.078 350H953.418V352H969.078V350Z" fill="white" mask="url(#path-16-inside-1_349_2)"/>
</g>
<defs>
<filter id="filter0_ddi_349_2" x="440.292" y="0.291718" width="393.417" height="224.645" filterUnits="userSpaceOnUse" color-interpolation-filters="sRGB">
<feFlood flood-opacity="0" result="BackgroundImageFix"/>
<feColorMatrix in="SourceAlpha" type="matrix" values="0 0 0 0 0 0 0 0 0 0 0 0 0 0 0 0 0 0 127 0" result="hardAlpha"/>
<feOffset/>
<feGaussianBlur stdDeviation="35.8541"/>
<feColorMatrix type="matrix" values="0 0 0 0 0.192157 0 0 0 0 0.321412 0 0 0 0 1 0 0 0 0.5 0"/>
<feBlend mode="normal" in2="BackgroundImageFix" result="effect1_dropShadow_349_2"/>
<feColorMatrix in="SourceAlpha" type="matrix" values="0 0 0 0 0 0 0 0 0 0 0 0 0 0 0 0 0 0 127 0" result="hardAlpha"/>
<feOffset/>
<feGaussianBlur stdDeviation="9.26148"/>
<feColorMatrix type="matrix" values="0 0 0 0 0 0 0 0 0 0.438917 0 0 0 0 0.954167 0 0 0 0.7 0"/>
<feBlend mode="normal" in2="effect1_dropShadow_349_2" result="effect2_dropShadow_349_2"/>
<feBlend mode="normal" in="SourceGraphic" in2="effect2_dropShadow_349_2" result="shape"/>
<feColorMatrix in="SourceAlpha" type="matrix" values="0 0 0 0 0 0 0 0 0 0 0 0 0 0 0 0 0 0 127 0" result="hardAlpha"/>
<feOffset/>
<feGaussianBlur stdDeviation="3.58541"/>
<feComposite in2="hardAlpha" operator="arithmetic" k2="-1" k3="1"/>
<feColorMatrix type="matrix" values="0 0 0 0 0.192157 0 0 0 0 0.369882 0 0 0 0 1 0 0 0 0.5 0"/>
<feBlend mode="normal" in2="shape" result="effect3_innerShadow_349_2"/>
</filter>
<filter id="filter1_ddi_349_2" x="252.676" y="117.192" width="825.641" height="305.517" filterUnits="userSpaceOnUse" color-interpolation-filters="sRGB">
<feFlood flood-opacity="0" result="BackgroundImageFix"/>
<feColorMatrix in="SourceAlpha" type="matrix" values="0 0 0 0 0 0 0 0 0 0 0 0 0 0 0 0 0 0 127 0" result="hardAlpha"/>
<feOffset/>
<feGaussianBlur stdDeviation="35.8541"/>
<feColorMatrix type="matrix" values="0 0 0 0 0.192157 0 0 0 0 0.321412 0 0 0 0 1 0 0 0 0.5 0"/>
<feBlend mode="normal" in2="BackgroundImageFix" result="effect1_dropShadow_349_2"/>
<feColorMatrix in="SourceAlpha" type="matrix" values="0 0 0 0 0 0 0 0 0 0 0 0 0 0 0 0 0 0 127 0" result="hardAlpha"/>
<feOffset/>
<feGaussianBlur stdDeviation="9.26148"/>
<feColorMatrix type="matrix" values="0 0 0 0 0.258333 0 0 0 0 0.5995 0 0 0 0 1 0 0 0 0.7 0"/>
<feBlend mode="normal" in2="effect1_dropShadow_349_2" result="effect2_dropShadow_349_2"/>
<feBlend mode="normal" in="SourceGraphic" in2="effect2_dropShadow_349_2" result="shape"/>
<feColorMatrix in="SourceAlpha" type="matrix" values="0 0 0 0 0 0 0 0 0 0 0 0 0 0 0 0 0 0 127 0" result="hardAlpha"/>
<feOffset/>
<feGaussianBlur stdDeviation="3.58541"/>
<feComposite in2="hardAlpha" operator="arithmetic" k2="-1" k3="1"/>
<feColorMatrix type="matrix" values="0 0 0 0 0.192157 0 0 0 0 0.369882 0 0 0 0 1 0 0 0 0.5 0"/>
<feBlend mode="normal" in2="shape" result="effect3_innerShadow_349_2"/>
</filter>
<linearGradient id="paint0_linear_349_2" x1="550.364" y1="112.306" x2="550.364" y2="135.916" gradientUnits="userSpaceOnUse">
<stop stop-color="white"/>
<stop offset="1" stop-color="white" stop-opacity="0"/>
</linearGradient>
<linearGradient id="paint1_linear_349_2" x1="546.334" y1="96.2102" x2="546.334" y2="138.416" gradientUnits="userSpaceOnUse">
<stop stop-color="white"/>
<stop offset="1" stop-color="white" stop-opacity="0"/>
</linearGradient>
<linearGradient id="paint2_linear_349_2" x1="538.227" y1="87.0493" x2="538.227" y2="140.611" gradientUnits="userSpaceOnUse">
<stop stop-color="white"/>
<stop offset="1" stop-color="white" stop-opacity="0"/>
</linearGradient>
<linearGradient id="paint3_linear_349_2" x1="524.312" y1="143.872" x2="524.312" y2="153.229" gradientUnits="userSpaceOnUse">
<stop stop-color="white"/>
<stop offset="1" stop-color="white" stop-opacity="0"/>
</linearGradient>
<linearGradient id="paint4_linear_349_2" x1="545.798" y1="144.055" x2="545.798" y2="153.093" gradientUnits="userSpaceOnUse">
<stop stop-color="white"/>
<stop offset="1" stop-color="white" stop-opacity="0"/>
</linearGradient>
<linearGradient id="paint5_linear_349_2" x1="567.446" y1="143.872" x2="567.446" y2="153.229" gradientUnits="userSpaceOnUse">
<stop stop-color="white"/>
<stop offset="1" stop-color="white" stop-opacity="0"/>
</linearGradient>
<linearGradient id="paint6_linear_349_2" x1="515.308" y1="144.076" x2="515.308" y2="153.079" gradientUnits="userSpaceOnUse">
<stop stop-color="white"/>
<stop offset="1" stop-color="white" stop-opacity="0"/>
</linearGradient>
<linearGradient id="paint7_linear_349_2" x1="613.586" y1="97.6572" x2="613.586" y2="142.613" gradientUnits="userSpaceOnUse">
<stop stop-color="white"/>
<stop offset="1" stop-color="white" stop-opacity="0"/>
</linearGradient>
<linearGradient id="paint8_linear_349_2" x1="696.847" y1="97.6572" x2="696.847" y2="142.607" gradientUnits="userSpaceOnUse">
<stop stop-color="white"/>
<stop offset="1" stop-color="white" stop-opacity="0"/>
</linearGradient>
<linearGradient id="paint9_linear_349_2" x1="730.163" y1="97.6572" x2="730.163" y2="142.607" gradientUnits="userSpaceOnUse">
<stop stop-color="white"/>
<stop offset="1" stop-color="white" stop-opacity="0"/>
</linearGradient>
<linearGradient id="paint10_linear_349_2" x1="756.635" y1="97.6572" x2="756.635" y2="142.607" gradientUnits="userSpaceOnUse">
<stop stop-color="white"/>
<stop offset="1" stop-color="white" stop-opacity="0"/>
</linearGradient>
<linearGradient id="paint11_linear_349_2" x1="651.415" y1="96.2632" x2="651.415" y2="142.607" gradientUnits="userSpaceOnUse">
<stop stop-color="white"/>
<stop offset="1" stop-color="white" stop-opacity="0"/>
</linearGradient>
<linearGradient id="paint12_linear_349_2" x1="657.118" y1="86.2532" x2="657.118" y2="97.6571" gradientUnits="userSpaceOnUse">
<stop stop-color="white"/>
<stop offset="1" stop-color="white" stop-opacity="0"/>
</linearGradient>
<linearGradient id="paint13_linear_349_2" x1="651.415" y1="79.1266" x2="651.415" y2="97.6571" gradientUnits="userSpaceOnUse">
<stop stop-color="white"/>
<stop offset="1" stop-color="white" stop-opacity="0"/>
</linearGradient>
<linearGradient id="paint14_linear_349_2" x1="664.245" y1="72" x2="664.245" y2="97.6572" gradientUnits="userSpaceOnUse">
<stop stop-color="white"/>
<stop offset="1" stop-color="white" stop-opacity="0"/>
</linearGradient>
<linearGradient id="paint15_linear_349_2" x1="665.5" y1="175" x2="665.5" y2="373" gradientUnits="userSpaceOnUse">
<stop stop-color="white"/>
<stop offset="1" stop-color="white" stop-opacity="0"/>
</linearGradient>
</defs>
</svg>
